M48
INCH
T44C0.012
T43C0.036
T42C0.091
T41C0.129
%
T44
X003900Y006650
X003900Y006200
X004350Y006650
X004350Y006200
X005250Y005350
X005800Y011750
X005900Y008600
X005900Y006400
X006700Y011750
X007100Y008600
X007100Y006400
X007400Y003050
X007400Y002650
X007750Y001150
X008050Y011750
X008150Y004950
X008150Y004550
X008400Y011250
X008400Y010900
X008400Y010550
X008750Y011250
X008750Y010900
X008750Y010550
X009000Y000650
X009750Y004900
X010000Y004200
X010500Y000650
X010600Y005175
X010700Y004750
X010750Y011500
X011000Y006700
X011050Y014400
X011050Y013000
X011250Y014050
X011250Y013700
X011250Y013350
X011250Y006500
X011500Y006700
X011550Y014400
X011550Y013000
X011750Y006500
X011750Y004675
X011800Y003925
X011900Y014400
X011900Y013000
X011900Y007000
X012200Y003850
X012250Y014400
X012250Y013000
X012600Y014400
X012600Y013000
X013001Y010650
X013001Y004350
X013985Y010650
X014000Y013100
X014100Y001050
X014100Y000700
X015100Y013100
X015150Y004100
X015150Y003600
X018415Y010650
X018415Y004350
X019399Y004350
T43
X005140Y008890
X005140Y007910
X005140Y007110
X005140Y006130
T42
X004070Y010090
X004070Y004920
T41
X001700Y013300
X001700Y001700
X018300Y013300
X018300Y001700
M30
