G04 start of page 2 for group 0 idx 0 *
G04 Title: (unknown), top *
G04 Creator: pcb 20140316 *
G04 CreationDate: Mon 29 Jan 2018 01:28:48 AM GMT UTC *
G04 For: railfan *
G04 Format: Gerber/RS-274X *
G04 PCB-Dimensions (mil): 2000.00 1500.00 *
G04 PCB-Coordinate-Origin: lower left *
%MOIN*%
%FSLAX25Y25*%
%LNTOP*%
%ADD28C,0.0360*%
%ADD27C,0.0910*%
%ADD26C,0.1285*%
%ADD25C,0.0120*%
%ADD24C,0.0260*%
%ADD23R,0.0945X0.0945*%
%ADD22R,0.0378X0.0378*%
%ADD21R,0.0350X0.0350*%
%ADD20R,0.0130X0.0130*%
%ADD19R,0.0167X0.0167*%
%ADD18R,0.0512X0.0512*%
%ADD17C,0.0660*%
%ADD16C,0.1570*%
%ADD15C,0.2937*%
%ADD14C,0.0250*%
%ADD13C,0.0100*%
%ADD12C,0.0400*%
%ADD11C,0.0001*%
G54D11*G36*
X130000Y126000D02*X103000D01*
Y146000D01*
X130000D01*
Y145788D01*
X129264Y145787D01*
X129111Y145750D01*
X128965Y145690D01*
X128831Y145608D01*
X128712Y145505D01*
X128609Y145386D01*
X128527Y145251D01*
X128467Y145106D01*
X128430Y144953D01*
X128421Y144796D01*
X128430Y140859D01*
X128467Y140706D01*
X128527Y140561D01*
X128609Y140426D01*
X128712Y140307D01*
X128831Y140204D01*
X128965Y140122D01*
X129111Y140062D01*
X129264Y140025D01*
X129421Y140016D01*
X130000Y140017D01*
Y133976D01*
X129264Y133975D01*
X129111Y133938D01*
X128965Y133878D01*
X128831Y133796D01*
X128712Y133693D01*
X128609Y133574D01*
X128527Y133439D01*
X128467Y133294D01*
X128430Y133141D01*
X128421Y132984D01*
X128430Y129047D01*
X128467Y128894D01*
X128527Y128749D01*
X128609Y128614D01*
X128712Y128495D01*
X128831Y128392D01*
X128965Y128310D01*
X129111Y128250D01*
X129264Y128213D01*
X129421Y128204D01*
X130000Y128205D01*
Y126000D01*
G37*
G36*
X84500Y115000D02*X98500D01*
Y104000D01*
X84500D01*
Y115000D01*
G37*
G36*
X76500D02*X97500D01*
Y104000D01*
X76500D01*
Y115000D01*
G37*
G36*
X51394Y75188D02*X51400Y75188D01*
X52012Y75236D01*
X52609Y75379D01*
X53176Y75614D01*
X53699Y75935D01*
X54166Y76334D01*
X54565Y76801D01*
X54886Y77324D01*
X55000Y77600D01*
X56000D01*
Y72600D01*
X55000D01*
X54886Y72876D01*
X54565Y73399D01*
X54166Y73866D01*
X53699Y74265D01*
X53176Y74586D01*
X52609Y74821D01*
X52012Y74964D01*
X51400Y75012D01*
X51394Y75012D01*
Y75188D01*
G37*
G36*
Y84988D02*X51400Y84988D01*
X52012Y85036D01*
X52609Y85179D01*
X53176Y85414D01*
X53699Y85735D01*
X54166Y86134D01*
X54565Y86601D01*
X54886Y87124D01*
X55121Y87691D01*
X55264Y88288D01*
X55278Y88536D01*
X56000Y89257D01*
Y86118D01*
X55991Y86000D01*
X56000Y85882D01*
Y80600D01*
X55000D01*
X54886Y80876D01*
X54565Y81399D01*
X54166Y81866D01*
X53699Y82265D01*
X53176Y82586D01*
X52609Y82821D01*
X52012Y82964D01*
X51400Y83012D01*
X51394Y83012D01*
Y84988D01*
G37*
G36*
Y100500D02*X56000D01*
Y96000D01*
X55618Y96000D01*
X55500Y96009D01*
X55035Y95973D01*
X55030Y95972D01*
X55030Y95972D01*
X55029Y95972D01*
X54784Y95913D01*
X54571Y95862D01*
X54571Y95862D01*
X54570Y95862D01*
X54337Y95765D01*
X54135Y95682D01*
X54134Y95682D01*
X54134Y95681D01*
X53919Y95550D01*
X53732Y95435D01*
X53732Y95435D01*
X53731Y95435D01*
X53727Y95431D01*
X53373Y95129D01*
X53296Y95039D01*
X51394Y93137D01*
Y100500D01*
G37*
G36*
X56000Y49500D02*X51394D01*
Y57388D01*
X51400Y57388D01*
X52012Y57436D01*
X52609Y57579D01*
X53176Y57814D01*
X53699Y58135D01*
X54166Y58534D01*
X54565Y59001D01*
X54886Y59524D01*
X55121Y60091D01*
X55264Y60688D01*
X55300Y61300D01*
X55264Y61912D01*
X55121Y62509D01*
X54886Y63076D01*
X54565Y63599D01*
X54166Y64066D01*
X53699Y64465D01*
X53176Y64786D01*
X52609Y65021D01*
X52012Y65164D01*
X51400Y65212D01*
X51394Y65212D01*
Y67188D01*
X51400Y67188D01*
X52012Y67236D01*
X52609Y67379D01*
X53176Y67614D01*
X53699Y67935D01*
X54166Y68334D01*
X54565Y68801D01*
X54886Y69324D01*
X55000Y69600D01*
X56000D01*
Y64118D01*
X55991Y64000D01*
X56000Y63882D01*
Y49500D01*
G37*
G36*
X51394D02*X49532D01*
X49468Y50589D01*
X49143Y51943D01*
X48610Y53230D01*
X47882Y54418D01*
X46977Y55477D01*
X45918Y56382D01*
X44730Y57110D01*
X43443Y57643D01*
X42089Y57968D01*
X40700Y58077D01*
X39311Y57968D01*
X37957Y57643D01*
X36670Y57110D01*
X35482Y56382D01*
X34423Y55477D01*
X33518Y54418D01*
X32790Y53230D01*
X32257Y51943D01*
X31932Y50589D01*
X31846Y49500D01*
X2000D01*
Y100500D01*
X31854D01*
X31932Y99511D01*
X32257Y98157D01*
X32790Y96870D01*
X33518Y95682D01*
X34423Y94623D01*
X35482Y93718D01*
X36670Y92990D01*
X37957Y92457D01*
X39311Y92132D01*
X40700Y92023D01*
X42089Y92132D01*
X43443Y92457D01*
X44730Y92990D01*
X45918Y93718D01*
X46977Y94623D01*
X47882Y95682D01*
X48610Y96870D01*
X49143Y98157D01*
X49468Y99511D01*
X49526Y100500D01*
X51394D01*
Y93137D01*
X51041Y92784D01*
X50788Y92764D01*
X50191Y92621D01*
X49624Y92386D01*
X49101Y92065D01*
X48634Y91666D01*
X48235Y91199D01*
X47914Y90676D01*
X47679Y90109D01*
X47536Y89512D01*
X47488Y88900D01*
X47536Y88288D01*
X47679Y87691D01*
X47914Y87124D01*
X48235Y86601D01*
X48634Y86134D01*
X49101Y85735D01*
X49624Y85414D01*
X50191Y85179D01*
X50788Y85036D01*
X51394Y84988D01*
Y83012D01*
X50788Y82964D01*
X50191Y82821D01*
X49624Y82586D01*
X49101Y82265D01*
X48634Y81866D01*
X48235Y81399D01*
X47914Y80876D01*
X47679Y80309D01*
X47536Y79712D01*
X47488Y79100D01*
X47536Y78488D01*
X47679Y77891D01*
X47914Y77324D01*
X48235Y76801D01*
X48634Y76334D01*
X49101Y75935D01*
X49624Y75614D01*
X50191Y75379D01*
X50788Y75236D01*
X51394Y75188D01*
Y75012D01*
X50788Y74964D01*
X50191Y74821D01*
X49624Y74586D01*
X49101Y74265D01*
X48634Y73866D01*
X48235Y73399D01*
X47914Y72876D01*
X47679Y72309D01*
X47536Y71712D01*
X47488Y71100D01*
X47536Y70488D01*
X47679Y69891D01*
X47914Y69324D01*
X48235Y68801D01*
X48634Y68334D01*
X49101Y67935D01*
X49624Y67614D01*
X50191Y67379D01*
X50788Y67236D01*
X51394Y67188D01*
Y65212D01*
X50788Y65164D01*
X50191Y65021D01*
X49624Y64786D01*
X49101Y64465D01*
X48634Y64066D01*
X48235Y63599D01*
X47914Y63076D01*
X47679Y62509D01*
X47536Y61912D01*
X47488Y61300D01*
X47536Y60688D01*
X47679Y60091D01*
X47914Y59524D01*
X48235Y59001D01*
X48634Y58534D01*
X49101Y58135D01*
X49624Y57814D01*
X50191Y57579D01*
X50788Y57436D01*
X51394Y57388D01*
Y49500D01*
G37*
G36*
X126500Y84000D02*X115500D01*
Y92000D01*
X126500D01*
Y84000D01*
G37*
G36*
X98000Y58000D02*X87000D01*
Y66000D01*
X98000D01*
Y58000D01*
G37*
G54D12*X146000Y138543D02*X155871D01*
X133358Y142906D02*X142137D01*
X146500Y138543D01*
G54D13*X131406Y147000D02*X135500Y142906D01*
G54D12*X155871Y138543D02*X155914Y138586D01*
X160914D01*
X162500Y137000D01*
Y120366D01*
X162433Y120299D01*
X140500Y131000D02*X133452D01*
X155914D02*X137000D01*
G54D13*X113000Y114600D02*X110900Y116700D01*
X112300Y112900D02*X110200Y115000D01*
X106500D01*
X104000Y117500D01*
X108000D02*X110100D01*
X111550Y116050D01*
X113000Y114600D02*X117900D01*
X119500Y113000D01*
X112300Y112900D02*X116100D01*
X117500Y111500D01*
X119500Y113000D02*Y104500D01*
X126000Y98000D01*
X117500Y111500D02*Y103500D01*
X125000Y96000D01*
X129000D01*
X126614Y58750D02*X121750D01*
X126614Y56250D02*X122250D01*
X120500Y54500D01*
G54D14*X120750Y58750D02*X118000Y56000D01*
X122000Y58750D02*X120750D01*
G54D13*X126614Y66250D02*X121250D01*
G54D12*X120500D02*X117250D01*
G54D13*X116500Y59000D02*X119500Y62000D01*
X124000Y49000D02*X137000D01*
X140500Y52500D01*
X103336Y76300D02*X103386Y76250D01*
G54D12*X110800Y87843D02*X110957Y88000D01*
X111000Y88043D02*Y69000D01*
G54D13*X103386Y66250D02*X108250D01*
X111000Y69000D01*
G54D12*X105957Y93000D02*X110957Y88000D01*
G54D13*X103386Y53750D02*X111450D01*
X109000D02*X113250D01*
X114500Y52500D01*
G54D14*X118000Y56000D02*Y46500D01*
X117000Y45500D01*
G54D13*X114500Y52500D02*Y49000D01*
G54D12*X118043Y88000D02*Y67043D01*
X115000Y64000D01*
X117250Y66250D02*X116500Y65500D01*
X114500Y63500D02*X112000D01*
G54D13*X103750Y63750D02*X112250D01*
X112500Y63500D01*
X103386Y61250D02*X108750D01*
X111000Y59000D01*
X116500D01*
X126614Y61250D02*X136750D01*
X133000Y72500D02*Y66500D01*
X136750Y61250D02*X138500Y63000D01*
X140500Y52500D02*Y91500D01*
X138500Y63000D02*Y99000D01*
X136000Y97100D02*Y75000D01*
X126614Y73750D02*X131750D01*
X133000Y72500D01*
X126614Y76250D02*X132750D01*
X134000Y77500D01*
Y84000D01*
Y81500D02*Y96500D01*
X129000Y96000D02*X131000Y94000D01*
Y79500D01*
X154559Y109315D02*X148815D01*
X154701Y120299D02*X158500Y116500D01*
Y104000D01*
X157000Y102500D01*
X151500D01*
X154701Y120299D02*X146685D01*
Y120299D01*
X123063Y109315D02*Y104437D01*
X127500Y100000D01*
X133100D01*
X126000Y98000D02*X132500D01*
X134000Y96500D01*
X151500Y102500D02*X140500Y91500D01*
X148815Y109315D02*X138500Y99000D01*
X133100Y100000D02*X136000Y97100D01*
X98000Y135500D02*Y144500D01*
X91304Y138650D02*X79150D01*
X91304Y135500D02*X83500D01*
X98000Y143500D02*Y146500D01*
X38500Y144500D02*X60457D01*
X54000Y134000D02*X55500Y135500D01*
X60457D01*
X40500Y144500D02*X38000D01*
X35000Y141500D01*
X91304Y141799D02*X75701D01*
X73000Y144500D01*
X79150Y138650D02*X76000Y135500D01*
X98000Y146500D02*X99000Y147500D01*
X130906D01*
X132500Y145906D01*
X73000Y144500D02*X67543D01*
X76000Y135500D02*X67543D01*
X83500D02*X74500Y126500D01*
X67543D01*
X60457D02*Y120043D01*
X63000Y117500D01*
X67000D01*
G54D12*X107000Y128000D02*X84000D01*
G54D14*X99441Y120299D02*X93299D01*
X91500Y118500D01*
G54D12*X84000Y128000D02*X76000Y120000D01*
X71957Y115957D02*X77500Y121500D01*
X72000Y109500D02*X71957Y109543D01*
G54D14*X91500Y118500D02*Y109382D01*
X91567Y109315D01*
G54D12*X71914Y109000D02*X71957Y109043D01*
X55500Y93000D02*X105978Y92979D01*
G54D13*X26500Y96000D02*Y83500D01*
X35000Y141500D02*Y119000D01*
X25000Y109000D01*
Y97500D01*
X54000Y134000D02*Y119000D01*
X55500Y117500D01*
X58000D01*
G54D12*X51400Y88900D02*X55500Y93000D01*
X72000Y116000D02*Y93000D01*
X59000Y64000D02*X71000D01*
X59000Y86000D02*X71000D01*
G54D13*X69100Y71100D02*X71425Y73425D01*
X68900Y79100D02*X71425Y76575D01*
X78000Y74000D02*X78500Y73500D01*
X81273D01*
X51400Y71100D02*X69100D01*
X71425Y73425D02*X74652D01*
X51400Y79100D02*X68900D01*
X71425Y76575D02*X74652D01*
X78000Y78000D02*Y74000D01*
X86500Y79500D02*X79500D01*
X78000Y78000D01*
X86000Y79500D02*X91000D01*
X92750Y73750D02*X89925Y76575D01*
X81348D01*
X91000Y79500D02*X94200Y76300D01*
X97250Y73750D02*X92750D01*
G54D14*X93000Y68500D02*X95750Y71250D01*
G54D13*X103386Y63750D02*X96250D01*
G54D14*X117000Y45500D02*X86000D01*
X82500Y49000D01*
Y62000D01*
G54D13*X120500Y54500D02*Y38000D01*
X103386Y71250D02*X96121D01*
G54D14*X95750D02*X98750D01*
G54D13*X103250D02*Y68886D01*
X103386Y68750D01*
X103336Y76300D02*X94200D01*
X94250Y73750D02*X103250D01*
G54D14*X82457Y62000D02*Y65957D01*
X85000Y68500D01*
X93000D01*
X82500Y62000D02*X82457Y62043D01*
G54D13*X101500Y41500D02*X99441Y39441D01*
X95500Y28000D02*X95000Y28500D01*
X88500D01*
X103500Y28000D02*X95500D01*
X105000Y6500D02*X99500D01*
X88500Y28500D02*X67500Y7500D01*
X62543D01*
X90000Y6500D02*X84500D01*
X79543Y13543D02*X77500Y11500D01*
X95000Y39000D02*X72500Y16500D01*
X62586D01*
G54D14*X74000Y34000D02*Y30000D01*
G54D13*X66348Y33575D02*X73575D01*
X66348Y30425D02*X73075D01*
X49000Y18000D02*Y29000D01*
X47000Y30500D02*Y9000D01*
X55500Y16500D02*X50500D01*
X49000Y18000D01*
X47000Y9000D02*X48500Y7500D01*
X55457D01*
X49000Y29000D02*X50500Y30500D01*
X59577D01*
X59652Y33575D02*X50075D01*
X47000Y30500D01*
X111500Y41500D02*X101500D01*
X99441Y39441D02*Y33685D01*
X111500Y28000D02*X111000Y28500D01*
X104000D01*
X103500Y28000D01*
X120500Y38000D02*X124815Y33685D01*
X130937D01*
X120500Y28000D02*X123000Y25500D01*
X120500Y28000D02*X111500D01*
X149925Y5652D02*Y8075D01*
X149000Y9000D01*
X141000D01*
X146776Y5652D02*X142652D01*
X153075D02*Y8075D01*
X154000Y9000D01*
X141000D02*X138457Y6457D01*
X142652Y5652D02*X139500Y2500D01*
X142152Y12348D02*X138811Y15689D01*
Y22701D01*
X138457Y6457D02*X129500D01*
Y13543D02*X79543D01*
X146776Y12348D02*X142152D01*
X149925D02*Y17575D01*
X146685Y20815D01*
X139500Y2500D02*X118457D01*
X114500Y6457D01*
X146685Y20815D02*Y33685D01*
X153075Y12348D02*Y15075D01*
X154559Y16559D01*
X156224Y12348D02*Y15224D01*
X154000Y9000D02*X162000D01*
X154559Y16559D02*Y22701D01*
X156224Y15224D02*X162433Y21433D01*
Y33685D01*
X156224Y5652D02*X162000D01*
G54D15*X17000Y17000D03*
G54D16*X40700Y49200D03*
G54D17*X51400Y71100D03*
Y61300D03*
G54D15*X183000Y133000D03*
Y17000D03*
X17000Y133000D03*
G54D16*X40700Y100900D03*
G54D17*X51400Y79100D03*
Y88900D03*
G54D18*X64521Y79000D02*X65307D01*
X64521Y86086D02*X65307D01*
X64607Y71043D02*X65393D01*
X64607Y63957D02*X65393D01*
G54D19*X73717Y76575D02*X75587D01*
X73717Y73425D02*X75587D01*
X80413D02*X82283D01*
X80413Y76575D02*X82283D01*
G54D18*X82457Y62393D02*Y61607D01*
X89543Y62393D02*Y61607D01*
X110957Y88393D02*Y87607D01*
X118043Y88393D02*Y87607D01*
G54D20*X124311Y71250D02*X128917D01*
X101083D02*X105689D01*
X124311Y73750D02*X128917D01*
X124311Y76250D02*X128917D01*
X101083D02*X105689D01*
X101083Y73750D02*X105689D01*
X124311Y53750D02*X128917D01*
X124311Y56250D02*X128917D01*
X124311Y58750D02*X128917D01*
X124311Y61250D02*X128917D01*
X124311Y63750D02*X128917D01*
X124311Y66250D02*X128917D01*
X124311Y68750D02*X128917D01*
X101083D02*X105689D01*
X101083Y66250D02*X105689D01*
X101083Y63750D02*X105689D01*
X101083Y61250D02*X105689D01*
X101083Y58750D02*X105689D01*
X101083Y56250D02*X105689D01*
X101083Y53750D02*X105689D01*
G54D21*X162433Y36441D02*Y30929D01*
X146685Y36441D02*Y30929D01*
X130937Y36441D02*Y30929D01*
X123063Y25457D02*Y19945D01*
X138811Y25457D02*Y19945D01*
G54D18*X129107Y13543D02*X129893D01*
G54D21*X154559Y25457D02*Y19945D01*
G54D19*X156224Y13283D02*Y11413D01*
X153075Y13283D02*Y11413D01*
X149925Y13283D02*Y11413D01*
X146776Y6587D02*Y4717D01*
Y13283D02*Y11413D01*
X149925Y6587D02*Y4717D01*
X153075Y6587D02*Y4717D01*
X156224Y6587D02*Y4717D01*
G54D18*X129107Y6457D02*X129893D01*
G54D21*X115189Y36441D02*Y30929D01*
X99441Y36441D02*Y30929D01*
G54D18*X55500Y16893D02*Y16107D01*
G54D19*X65413Y30425D02*X67283D01*
X65413Y33575D02*X67283D01*
X58717D02*X60587D01*
X58717Y30425D02*X60587D01*
G54D18*X55457Y7893D02*Y7107D01*
X62543Y7893D02*Y7107D01*
X62586Y16893D02*Y16107D01*
G54D21*X91567Y25457D02*Y19945D01*
X107315Y25457D02*Y19945D01*
G54D18*X114107Y13543D02*X114893D01*
X114107Y6457D02*X114893D01*
X99107Y13543D02*X99893D01*
X99107Y6457D02*X99893D01*
X84107Y13543D02*X84893D01*
X84107Y6457D02*X84893D01*
X155521Y138086D02*X156307D01*
X155521Y131000D02*X156307D01*
X145607Y138043D02*X146393D01*
X145607Y130957D02*X146393D01*
G54D22*X131311Y131094D02*X135405D01*
X123595Y137000D02*X135405D01*
G54D23*X119971D02*X121861D01*
G54D11*G36*
X125166Y133695D02*X128006Y136535D01*
X129426Y135115D01*
X126586Y132275D01*
X125166Y133695D01*
G37*
G54D21*X130937Y123055D02*Y117543D01*
X115189Y123055D02*Y117543D01*
X123063Y112071D02*Y106559D01*
X138811Y112071D02*Y106559D01*
G54D11*G36*
X126586Y141725D02*X129426Y138885D01*
X128006Y137465D01*
X125166Y140305D01*
X126586Y141725D01*
G37*
G54D22*X131311Y142906D02*X135405D01*
G54D21*X162433Y123055D02*Y117543D01*
X146685Y123055D02*Y117543D01*
X154559Y112071D02*Y106559D01*
G54D18*X71957Y109393D02*Y108607D01*
X79043Y109393D02*Y108607D01*
G54D21*X91567Y112071D02*Y106559D01*
X107315Y112071D02*Y106559D01*
G54D19*X90369Y141799D02*X92239D01*
X90369Y138650D02*X92239D01*
X90369Y135500D02*X92239D01*
X90369Y132351D02*X92239D01*
X97065D02*X98935D01*
X97065Y135500D02*X98935D01*
X97065Y138650D02*X98935D01*
X97065Y141799D02*X98935D01*
G54D21*X99441Y123055D02*Y117543D01*
G54D18*X60457Y135893D02*Y135107D01*
Y126893D02*Y126107D01*
Y144893D02*Y144107D01*
X67543Y135893D02*Y135107D01*
Y126893D02*Y126107D01*
Y144893D02*Y144107D01*
G54D24*X86500Y113000D03*
Y109500D03*
Y106000D03*
X96500Y113000D03*
Y109500D03*
Y106000D03*
X67000Y117500D03*
X58000D03*
X52500Y53500D03*
X59000Y64000D03*
Y86000D03*
X71000D03*
X140000Y131000D03*
X151000D03*
X162000Y9000D03*
Y5652D03*
X104000Y117500D03*
X108000D03*
X126000Y144000D03*
X122500D03*
X119000D03*
X126000Y130000D03*
X122500D03*
X119000D03*
X115500D03*
X110500D03*
X115500Y144000D03*
X112500Y137000D03*
Y140500D03*
Y133500D03*
X110500Y144000D03*
X111500Y41500D03*
X114500Y49000D03*
X112000Y63500D03*
X124000Y49000D03*
X120500Y66250D03*
X124500Y90000D03*
Y86000D03*
X119500Y62000D03*
X105000Y6500D03*
X133000Y66500D03*
X131000Y79500D03*
X136000Y75000D03*
X43500Y66500D03*
Y62000D03*
X71000Y64000D03*
X96000Y60000D03*
Y64000D03*
X39000Y66500D03*
Y62000D03*
X95000Y39000D03*
X90000Y6500D03*
X74000Y30000D03*
Y34000D03*
X77500Y11500D03*
G54D25*G54D26*G54D27*G54D28*G54D26*G54D27*G54D28*M02*
