M48
INCH
T43C0.012
T42C0.036
T41C0.091
T40C0.129
%
T43
X003900Y006650
X003900Y006200
X004350Y006650
X004350Y006200
X005250Y005350
X005800Y011750
X005900Y008600
X005900Y006400
X006700Y011750
X007100Y008600
X007100Y006400
X007400Y003400
X007400Y003000
X007750Y001150
X008650Y011300
X008650Y010950
X008650Y010600
X009000Y000650
X009500Y003900
X009600Y006400
X009600Y006000
X009650Y011300
X009650Y010950
X009650Y010600
X010400Y011750
X010500Y000650
X010800Y011750
X011050Y014400
X011050Y013000
X011150Y004150
X011200Y006350
X011250Y014050
X011250Y013700
X011250Y013350
X011450Y004900
X011550Y014400
X011550Y013000
X011900Y014400
X011900Y013000
X011950Y006200
X012050Y006625
X012250Y014400
X012250Y013000
X012400Y004900
X012450Y009000
X012450Y008600
X012600Y014400
X012600Y013000
X013100Y007950
X013300Y006650
X013600Y007500
X014000Y013100
X015100Y013100
X016200Y000900
X016200Y000565
T42
X005140Y008890
X005140Y007910
X005140Y007110
X005140Y006130
T41
X004070Y010090
X004070Y004920
T40
X001700Y013300
X001700Y001700
X018300Y013300
X018300Y001700
M30
