G04 start of page 8 for group -4079 idx -4079 *
G04 Title: (unknown), topsilk *
G04 Creator: pcb 20140316 *
G04 CreationDate: Mon 29 Jan 2018 01:28:48 AM GMT UTC *
G04 For: railfan *
G04 Format: Gerber/RS-274X *
G04 PCB-Dimensions (mil): 2000.00 1500.00 *
G04 PCB-Coordinate-Origin: lower left *
%MOIN*%
%FSLAX25Y25*%
%LNTOPSILK*%
%ADD58C,0.0080*%
%ADD57C,0.0100*%
G54D57*X179500Y500D02*X500D01*
Y149500D01*
X179500D01*
X199500D02*Y500D01*
X179000Y149500D02*X199500D01*
X178000Y500D02*X199500D01*
G54D58*X72000Y126000D02*X74000D01*
X73000Y127000D02*Y125000D01*
X45500Y146500D02*Y142500D01*
X45000Y146500D02*X47000D01*
X47500Y146000D01*
Y145000D01*
X47000Y144500D02*X47500Y145000D01*
X45500Y144500D02*X47000D01*
X48700Y146500D02*Y144500D01*
X49200Y142500D01*
X50200Y144500D01*
X51200Y142500D01*
X51700Y144500D01*
Y146500D02*Y144500D01*
X52900Y146500D02*X54900D01*
X55400Y146000D01*
Y145000D01*
X54900Y144500D02*X55400Y145000D01*
X53400Y144500D02*X54900D01*
X53400Y146500D02*Y142500D01*
X54200Y144500D02*X55400Y142500D01*
X33500Y133500D02*X36000Y137500D01*
X33500D02*X36000Y133500D01*
X37200D02*X39200D01*
X39700Y134000D01*
Y135200D02*Y134000D01*
X39200Y135700D02*X39700Y135200D01*
X37700Y135700D02*X39200D01*
X37700Y137500D02*Y133500D01*
X37200Y137500D02*X39200D01*
X39700Y137000D01*
Y136200D01*
X39200Y135700D02*X39700Y136200D01*
X40900Y135700D02*X42400D01*
X40900Y133500D02*X42900D01*
X40900Y137500D02*Y133500D01*
Y137500D02*X42900D01*
X44100Y135700D02*X45600D01*
X44100Y133500D02*X46100D01*
X44100Y137500D02*Y133500D01*
Y137500D02*X46100D01*
X49100D02*X51100D01*
X51600Y137000D01*
Y136000D01*
X51100Y135500D02*X51600Y136000D01*
X49600Y135500D02*X51100D01*
X49600Y137500D02*Y133500D01*
X50400Y135500D02*X51600Y133500D01*
X52800D02*X55300Y137500D01*
X52800D02*X55300Y133500D01*
X34000Y124500D02*X36500Y128500D01*
X34000D02*X36500Y124500D01*
X37700D02*X39700D01*
X40200Y125000D01*
Y126200D02*Y125000D01*
X39700Y126700D02*X40200Y126200D01*
X38200Y126700D02*X39700D01*
X38200Y128500D02*Y124500D01*
X37700Y128500D02*X39700D01*
X40200Y128000D01*
Y127200D01*
X39700Y126700D02*X40200Y127200D01*
X41400Y126700D02*X42900D01*
X41400Y124500D02*X43400D01*
X41400Y128500D02*Y124500D01*
Y128500D02*X43400D01*
X44600Y126700D02*X46100D01*
X44600Y124500D02*X46600D01*
X44600Y128500D02*Y124500D01*
Y128500D02*X46600D01*
X49600D02*X51600D01*
X50600D02*Y124500D01*
X52800D02*X55300Y128500D01*
X52800D02*X55300Y124500D01*
X72000Y135500D02*X74000D01*
X73000Y136500D02*Y134500D01*
X72000Y144500D02*X74000D01*
X73000Y145500D02*Y143500D01*
X182000Y50000D02*Y48700D01*
X181300Y48000D02*X182000Y48700D01*
X178700Y48000D02*X181300D01*
X178700D02*X178000Y48700D01*
Y50000D02*Y48700D01*
X182000Y53200D02*Y51900D01*
X181300Y51200D02*X182000Y51900D01*
X178700Y51200D02*X181300D01*
X178700D02*X178000Y51900D01*
Y53200D02*Y51900D01*
X182000Y58200D02*Y56200D01*
Y58200D02*X181500Y58700D01*
X180300D02*X181500D01*
X179800Y58200D02*X180300Y58700D01*
X179800Y58200D02*Y56700D01*
X178000D02*X182000D01*
X178000Y58200D02*Y56200D01*
Y58200D02*X178500Y58700D01*
X179300D01*
X179800Y58200D02*X179300Y58700D01*
X178000Y59900D02*X180000Y60900D01*
X178000Y61900D01*
X180000Y60900D02*X182000D01*
X180000Y65100D02*Y63100D01*
X178000Y68300D02*X178500Y68800D01*
X178000Y68300D02*Y66800D01*
X178500Y66300D02*X178000Y66800D01*
X178500Y66300D02*X179500D01*
X180000Y66800D01*
Y68300D02*Y66800D01*
Y68300D02*X180500Y68800D01*
X181500D01*
X182000Y68300D02*X181500Y68800D01*
X182000Y68300D02*Y66800D01*
X181500Y66300D02*X182000Y66800D01*
X179000Y70000D02*X182000D01*
X179000D02*X178000Y70700D01*
Y71800D02*Y70700D01*
Y71800D02*X179000Y72500D01*
X182000D01*
X180000D02*Y70000D01*
X181500Y75500D02*X182000Y76000D01*
X178500Y75500D02*X178000Y76000D01*
X178500Y75500D02*X181500D01*
X182000Y79200D02*Y77900D01*
X181300Y77200D02*X182000Y77900D01*
X178700Y77200D02*X181300D01*
X178700D02*X178000Y77900D01*
Y79200D02*Y77900D01*
Y80400D02*X178500Y80900D01*
X181500D01*
X182000Y80400D02*X181500Y80900D01*
X178500Y83900D02*X178000Y84400D01*
Y85900D02*Y84400D01*
Y85900D02*X178500Y86400D01*
X179500D01*
X182000Y83900D02*X179500Y86400D01*
X182000D02*Y83900D01*
X181500Y87600D02*X182000Y88100D01*
X178500Y87600D02*X181500D01*
X178500D02*X178000Y88100D01*
Y89100D02*Y88100D01*
Y89100D02*X178500Y89600D01*
X181500D01*
X182000Y89100D02*X181500Y89600D01*
X182000Y89100D02*Y88100D01*
X181000Y87600D02*X179000Y89600D01*
X178800Y90800D02*X178000Y91600D01*
X182000D01*
Y92300D02*Y90800D01*
X181500Y93500D02*X182000Y94000D01*
X180700Y93500D02*X181500D01*
X180700D02*X180000Y94200D01*
Y94800D02*Y94200D01*
Y94800D02*X180700Y95500D01*
X181500D01*
X182000Y95000D02*X181500Y95500D01*
X182000Y95000D02*Y94000D01*
X179300Y93500D02*X180000Y94200D01*
X178500Y93500D02*X179300D01*
X178500D02*X178000Y94000D01*
Y95000D02*Y94000D01*
Y95000D02*X178500Y95500D01*
X179300D01*
X180000Y94800D02*X179300Y95500D01*
X133000Y54500D02*X135000Y52500D01*
X133000D02*X135000Y54500D01*
X133000Y53500D02*X135000D01*
X134000Y54500D02*Y52500D01*
X192500Y36500D02*X196500D01*
X195000D02*X194500Y37000D01*
Y38000D02*Y37000D01*
Y38000D02*X195000Y38500D01*
X196500D01*
X192500Y40200D02*X196000D01*
X196500Y40700D01*
X194000D02*Y39700D01*
X192500Y42200D02*X196000D01*
X196500Y42700D01*
X194000D02*Y41700D01*
X195000Y44200D02*X198000D01*
X194500Y43700D02*X195000Y44200D01*
X194500Y44700D01*
Y45700D02*Y44700D01*
Y45700D02*X195000Y46200D01*
X196000D01*
X196500Y45700D02*X196000Y46200D01*
X196500Y45700D02*Y44700D01*
X196000Y44200D02*X196500Y44700D01*
Y49400D02*Y47900D01*
Y49400D02*X196000Y49900D01*
X195500Y49400D02*X196000Y49900D01*
X195500Y49400D02*Y47900D01*
X195000Y47400D02*X195500Y47900D01*
X195000Y47400D02*X194500Y47900D01*
Y49400D02*Y47900D01*
Y49400D02*X195000Y49900D01*
X196000Y47400D02*X196500Y47900D01*
X194000Y51600D02*Y51100D01*
X195000Y51600D02*Y51100D01*
X196000Y52800D02*X193000Y55800D01*
X196000Y57000D02*X193000Y60000D01*
X194500Y61200D02*X196000D01*
X196500Y61700D01*
Y62200D02*Y61700D01*
Y62200D02*X196000Y62700D01*
X194500D02*X196000D01*
X196500Y63200D01*
Y63700D02*Y63200D01*
Y63700D02*X196000Y64200D01*
X194500D02*X196000D01*
X194500Y65400D02*X196000D01*
X196500Y65900D01*
Y66400D02*Y65900D01*
Y66400D02*X196000Y66900D01*
X194500D02*X196000D01*
X196500Y67400D01*
Y67900D02*Y67400D01*
Y67900D02*X196000Y68400D01*
X194500D02*X196000D01*
X194500Y69600D02*X196000D01*
X196500Y70100D01*
Y70600D02*Y70100D01*
Y70600D02*X196000Y71100D01*
X194500D02*X196000D01*
X196500Y71600D01*
Y72100D02*Y71600D01*
Y72100D02*X196000Y72600D01*
X194500D02*X196000D01*
X196500Y74300D02*Y73800D01*
X193500Y75500D02*X193600D01*
X195000D02*X196500D01*
X194500Y78000D02*X195000Y78500D01*
X194500Y78000D02*Y77000D01*
X195000Y76500D02*X194500Y77000D01*
X195000Y76500D02*X196000D01*
X196500Y77000D01*
X194500Y78500D02*X196000D01*
X196500Y79000D01*
Y78000D02*Y77000D01*
Y78000D02*X196000Y78500D01*
X196500Y82200D02*Y80700D01*
Y82200D02*X196000Y82700D01*
X195500Y82200D02*X196000Y82700D01*
X195500Y82200D02*Y80700D01*
X195000Y80200D02*X195500Y80700D01*
X195000Y80200D02*X194500Y80700D01*
Y82200D02*Y80700D01*
Y82200D02*X195000Y82700D01*
X196000Y80200D02*X196500Y80700D01*
X194500Y85900D02*Y84400D01*
X195000Y83900D02*X194500Y84400D01*
X195000Y83900D02*X196000D01*
X196500Y84400D01*
Y85900D02*Y84400D01*
X194500Y88600D02*X195000Y89100D01*
X194500Y88600D02*Y87600D01*
X195000Y87100D02*X194500Y87600D01*
X195000Y87100D02*X196000D01*
X196500Y87600D01*
X194500Y89100D02*X196000D01*
X196500Y89600D01*
Y88600D02*Y87600D01*
Y88600D02*X196000Y89100D01*
X192500Y90800D02*X196000D01*
X196500Y91300D01*
Y94300D02*Y92800D01*
X196000Y92300D02*X196500Y92800D01*
X195000Y92300D02*X196000D01*
X195000D02*X194500Y92800D01*
Y93800D02*Y92800D01*
Y93800D02*X195000Y94300D01*
X195500D02*Y92300D01*
X195000Y94300D02*X195500D01*
X192500Y97500D02*X196500D01*
Y97000D02*X196000Y97500D01*
X196500Y97000D02*Y96000D01*
X196000Y95500D02*X196500Y96000D01*
X195000Y95500D02*X196000D01*
X195000D02*X194500Y96000D01*
Y97000D02*Y96000D01*
Y97000D02*X195000Y97500D01*
X196500Y99200D02*Y98700D01*
X194500Y102400D02*Y100900D01*
X195000Y100400D02*X194500Y100900D01*
X195000Y100400D02*X196000D01*
X196500Y100900D01*
Y102400D02*Y100900D01*
X195000Y103600D02*X196000D01*
X195000D02*X194500Y104100D01*
Y105100D02*Y104100D01*
Y105100D02*X195000Y105600D01*
X196000D01*
X196500Y105100D02*X196000Y105600D01*
X196500Y105100D02*Y104100D01*
X196000Y103600D02*X196500Y104100D01*
X195000Y107300D02*X196500D01*
X195000D02*X194500Y107800D01*
Y108300D02*Y107800D01*
Y108300D02*X195000Y108800D01*
X196500D01*
X195000D02*X194500Y109300D01*
Y109800D02*Y109300D01*
Y109800D02*X195000Y110300D01*
X196500D01*
X194500Y106800D02*X195000Y107300D01*
X3200Y35000D02*X4500D01*
X2500Y35700D02*X3200Y35000D01*
X2500Y38300D02*Y35700D01*
Y38300D02*X3200Y39000D01*
X4500D01*
X5700D02*Y35000D01*
Y37000D02*X7700Y39000D01*
X5700Y37000D02*X7700Y35000D01*
X8900Y39000D02*X10900D01*
X9900D02*Y35000D01*
X12100Y37000D02*X14100D01*
X15300Y35000D02*X17800Y39000D01*
X15300D02*X17800Y35000D01*
X19000D02*X21000D01*
X21500Y35500D01*
Y36700D02*Y35500D01*
X21000Y37200D02*X21500Y36700D01*
X19500Y37200D02*X21000D01*
X19500Y39000D02*Y35000D01*
X19000Y39000D02*X21000D01*
X21500Y38500D01*
Y37700D01*
X21000Y37200D02*X21500Y37700D01*
X22700Y37200D02*X24200D01*
X22700Y35000D02*X24700D01*
X22700Y39000D02*Y35000D01*
Y39000D02*X24700D01*
X25900Y37200D02*X27400D01*
X25900Y35000D02*X27900D01*
X25900Y39000D02*Y35000D01*
Y39000D02*X27900D01*
X30900Y38200D02*X31700Y39000D01*
Y35000D01*
X30900D02*X32400D01*
X33600D02*X34100D01*
X35300Y35500D02*X35800Y35000D01*
X35300Y38500D02*Y35500D01*
Y38500D02*X35800Y39000D01*
X36800D01*
X37300Y38500D01*
Y35500D01*
X36800Y35000D02*X37300Y35500D01*
X35800Y35000D02*X36800D01*
X35300Y36000D02*X37300Y38000D01*
X2500Y116000D02*X3500D01*
X3000D02*Y112000D01*
X2500D02*X3500D01*
X4700Y113500D02*Y112500D01*
Y113500D02*X5200Y114000D01*
X6200D01*
X6700Y113500D01*
Y112500D01*
X6200Y112000D02*X6700Y112500D01*
X5200Y112000D02*X6200D01*
X4700Y112500D02*X5200Y112000D01*
X7900Y114000D02*Y112500D01*
X8400Y112000D01*
X8900D01*
X9400Y112500D01*
Y114000D02*Y112500D01*
X9900Y112000D01*
X10400D01*
X10900Y112500D01*
Y114000D02*Y112500D01*
X13600Y114000D02*X14100Y113500D01*
X12600Y114000D02*X13600D01*
X12100Y113500D02*X12600Y114000D01*
X12100Y113500D02*Y112500D01*
X12600Y112000D01*
X14100Y114000D02*Y112500D01*
X14600Y112000D01*
X12600D02*X13600D01*
X14100Y112500D01*
X19600Y116000D02*X20100Y115500D01*
X18100Y116000D02*X19600D01*
X17600Y115500D02*X18100Y116000D01*
X17600Y115500D02*Y114500D01*
X18100Y114000D01*
X19600D01*
X20100Y113500D01*
Y112500D01*
X19600Y112000D02*X20100Y112500D01*
X18100Y112000D02*X19600D01*
X17600Y112500D02*X18100Y112000D01*
X21800Y114000D02*X23300D01*
X21300Y113500D02*X21800Y114000D01*
X21300Y113500D02*Y112500D01*
X21800Y112000D01*
X23300D01*
X26000Y114000D02*X26500Y113500D01*
X25000Y114000D02*X26000D01*
X24500Y113500D02*X25000Y114000D01*
X24500Y113500D02*Y112500D01*
X25000Y112000D01*
X26500Y114000D02*Y112500D01*
X27000Y112000D01*
X25000D02*X26000D01*
X26500Y112500D01*
X28200Y116000D02*Y112500D01*
X28700Y112000D01*
X30200D02*X31700D01*
X29700Y112500D02*X30200Y112000D01*
X29700Y113500D02*Y112500D01*
Y113500D02*X30200Y114000D01*
X31200D01*
X31700Y113500D01*
X29700Y113000D02*X31700D01*
Y113500D02*Y113000D01*
X34900Y116000D02*Y112000D01*
X34400D02*X34900Y112500D01*
X33400Y112000D02*X34400D01*
X32900Y112500D02*X33400Y112000D01*
X32900Y113500D02*Y112500D01*
Y113500D02*X33400Y114000D01*
X34400D01*
X34900Y113500D01*
X37900Y114200D02*X39400D01*
X37900Y112000D02*X39900D01*
X37900Y116000D02*Y112000D01*
Y116000D02*X39900D01*
X41600Y113500D02*Y112000D01*
Y113500D02*X42100Y114000D01*
X42600D01*
X43100Y113500D01*
Y112000D01*
X41100Y114000D02*X41600Y113500D01*
X45800Y114000D02*X46300Y113500D01*
X44800Y114000D02*X45800D01*
X44300Y113500D02*X44800Y114000D01*
X44300Y113500D02*Y112500D01*
X44800Y112000D01*
X45800D01*
X46300Y112500D01*
X44300Y111000D02*X44800Y110500D01*
X45800D01*
X46300Y111000D01*
Y114000D02*Y111000D01*
X47500Y115000D02*Y114900D01*
Y113500D02*Y112000D01*
X49000Y113500D02*Y112000D01*
Y113500D02*X49500Y114000D01*
X50000D01*
X50500Y113500D01*
Y112000D01*
X48500Y114000D02*X49000Y113500D01*
X52200Y112000D02*X53700D01*
X51700Y112500D02*X52200Y112000D01*
X51700Y113500D02*Y112500D01*
Y113500D02*X52200Y114000D01*
X53200D01*
X53700Y113500D01*
X51700Y113000D02*X53700D01*
Y113500D02*Y113000D01*
X55400Y112000D02*X56900D01*
X54900Y112500D02*X55400Y112000D01*
X54900Y113500D02*Y112500D01*
Y113500D02*X55400Y114000D01*
X56400D01*
X56900Y113500D01*
X54900Y113000D02*X56900D01*
Y113500D02*Y113000D01*
X58600Y113500D02*Y112000D01*
Y113500D02*X59100Y114000D01*
X60100D01*
X58100D02*X58600Y113500D01*
X61300Y115000D02*Y114900D01*
Y113500D02*Y112000D01*
X62800Y113500D02*Y112000D01*
Y113500D02*X63300Y114000D01*
X63800D01*
X64300Y113500D01*
Y112000D01*
X62300Y114000D02*X62800Y113500D01*
X67000Y114000D02*X67500Y113500D01*
X66000Y114000D02*X67000D01*
X65500Y113500D02*X66000Y114000D01*
X65500Y113500D02*Y112500D01*
X66000Y112000D01*
X67000D01*
X67500Y112500D01*
X65500Y111000D02*X66000Y110500D01*
X67000D01*
X67500Y111000D01*
Y114000D02*Y111000D01*
X66000Y12000D02*X68000D01*
X67000Y13000D02*Y11000D01*
X38000Y18500D02*X40000D01*
X40500Y18000D01*
Y17000D01*
X40000Y16500D02*X40500Y17000D01*
X38500Y16500D02*X40000D01*
X38500Y18500D02*Y14500D01*
X39300Y16500D02*X40500Y14500D01*
X43700Y18500D02*X44200Y18000D01*
X42200Y18500D02*X43700D01*
X41700Y18000D02*X42200Y18500D01*
X41700Y18000D02*Y17000D01*
X42200Y16500D01*
X43700D01*
X44200Y16000D01*
Y15000D01*
X43700Y14500D02*X44200Y15000D01*
X42200Y14500D02*X43700D01*
X41700Y15000D02*X42200Y14500D01*
X47400Y18500D02*X47900Y18000D01*
X45900Y18500D02*X47400D01*
X45400Y18000D02*X45900Y18500D01*
X45400Y18000D02*Y17000D01*
X45900Y16500D01*
X47400D01*
X47900Y16000D01*
Y15000D01*
X47400Y14500D02*X47900Y15000D01*
X45900Y14500D02*X47400D01*
X45400Y15000D02*X45900Y14500D01*
X49100Y18500D02*X50100D01*
X49600D02*Y14500D01*
X49100D02*X50100D01*
X34000Y9000D02*Y6000D01*
Y9000D02*X34700Y10000D01*
X35800D01*
X36500Y9000D01*
Y6000D01*
X34000Y8000D02*X36500D01*
X39700Y10000D02*X40200Y9500D01*
X38200Y10000D02*X39700D01*
X37700Y9500D02*X38200Y10000D01*
X37700Y9500D02*Y8500D01*
X38200Y8000D01*
X39700D01*
X40200Y7500D01*
Y6500D01*
X39700Y6000D02*X40200Y6500D01*
X38200Y6000D02*X39700D01*
X37700Y6500D02*X38200Y6000D01*
X43400Y10000D02*X43900Y9500D01*
X41900Y10000D02*X43400D01*
X41400Y9500D02*X41900Y10000D01*
X41400Y9500D02*Y8500D01*
X41900Y8000D01*
X43400D01*
X43900Y7500D01*
Y6500D01*
X43400Y6000D02*X43900Y6500D01*
X41900Y6000D02*X43400D01*
X41400Y6500D02*X41900Y6000D01*
X45100Y9500D02*Y6500D01*
Y9500D02*X45600Y10000D01*
X46600D01*
X47100Y9500D01*
Y6500D01*
X46600Y6000D02*X47100Y6500D01*
X45600Y6000D02*X46600D01*
X45100Y6500D02*X45600Y6000D01*
X49000D02*X50300D01*
X48300Y6700D02*X49000Y6000D01*
X48300Y9300D02*Y6700D01*
Y9300D02*X49000Y10000D01*
X50300D01*
X91000Y4500D02*X93000D01*
X92000Y5500D02*Y3500D01*
X106000Y4500D02*X108000D01*
X107000Y5500D02*Y3500D01*
X121000Y4500D02*X123000D01*
X122000Y5500D02*Y3500D01*
G54D57*X158669Y134936D02*Y134150D01*
X153159Y134936D02*Y134150D01*
X148755Y134893D02*Y134107D01*
X143245Y134893D02*Y134107D01*
X144610Y15299D02*Y2701D01*
Y15299D02*X158390D01*
Y2701D01*
X144610D02*X158390D01*
X121271Y127750D02*X131901D01*
X121271Y146250D02*X131901D01*
X121271Y131000D02*Y127750D01*
Y146250D02*Y143000D01*
X131901Y127929D02*Y127750D01*
Y146250D02*Y146071D01*
X114107Y90755D02*X114893D01*
X114107Y85245D02*X114893D01*
X130566Y82524D02*Y47476D01*
X99434Y82524D02*X130566D01*
X99434D02*Y47476D01*
X117500D02*X130566D01*
X99434D02*X112500D01*
X117500D02*G75*G03X112500Y47476I-2500J0D01*G01*
X82650Y119807D02*X87000D01*
X82650Y23193D02*X87000D01*
X82650Y119807D02*Y116500D01*
Y26500D02*Y23193D01*
X165642Y119807D02*X191351Y89610D01*
X165642Y23193D02*X191351Y53390D01*
Y89610D02*Y53390D01*
X61650Y119807D02*Y116500D01*
Y119807D02*X72000D01*
X61650Y26500D02*Y23193D01*
X72000D01*
X85607Y64755D02*X86393D01*
X85607Y59245D02*X86393D01*
X132255Y10393D02*Y9607D01*
X126745Y10393D02*Y9607D01*
X117255Y10393D02*Y9607D01*
X111745Y10393D02*Y9607D01*
X102255Y10393D02*Y9607D01*
X96745Y10393D02*Y9607D01*
X87255Y10393D02*Y9607D01*
X81745Y10393D02*Y9607D01*
X88353Y143965D02*X100951D01*
Y130185D01*
X88353D01*
Y143965D01*
X600Y49200D02*X31500D01*
X600Y100900D02*Y49200D01*
Y100900D02*X31500D01*
X49700D02*X56300D01*
X49700Y49200D02*X56300D01*
Y100900D02*Y49200D01*
X67755Y67893D02*Y67107D01*
X62245Y67893D02*Y67107D01*
X63607Y147255D02*X64393D01*
X63607Y141745D02*X64393D01*
X75107Y111755D02*X75893D01*
X75107Y106245D02*X75893D01*
X63607Y138255D02*X64393D01*
X63607Y132745D02*X64393D01*
X63607Y129255D02*X64393D01*
X63607Y123745D02*X64393D01*
X62159Y82936D02*Y82150D01*
X67669Y82936D02*Y82150D01*
X71701Y78741D02*X84299D01*
Y71259D01*
X71701D01*
Y78741D01*
X56701Y28259D02*X69299D01*
X56701Y35741D02*Y28259D01*
Y35741D02*X69299D01*
Y28259D01*
X58607Y10255D02*X59393D01*
X58607Y4745D02*X59393D01*
X58650Y19255D02*X59436D01*
X58650Y13745D02*X59436D01*
G54D58*X153964Y142564D02*X155264D01*
X153264Y143264D02*X153964Y142564D01*
X153264Y145864D02*Y143264D01*
Y145864D02*X153964Y146564D01*
X155264D01*
X156964Y142564D02*X158964Y146564D01*
X156464D02*X158964D01*
X144507Y142607D02*X145807D01*
X143807Y143307D02*X144507Y142607D01*
X143807Y145907D02*Y143307D01*
Y145907D02*X144507Y146607D01*
X145807D01*
X148507D02*X149007Y146107D01*
X147507Y146607D02*X148507D01*
X147007Y146107D02*X147507Y146607D01*
X147007Y146107D02*Y143107D01*
X147507Y142607D01*
X148507Y144807D02*X149007Y144307D01*
X147007Y144807D02*X148507D01*
X147507Y142607D02*X148507D01*
X149007Y143107D01*
Y144307D02*Y143107D01*
X121337Y126000D02*Y122500D01*
X121837Y122000D01*
X122837D01*
X123337Y122500D01*
Y126000D02*Y122500D01*
X124537Y125500D02*X125037Y126000D01*
X126537D01*
X127037Y125500D01*
Y124500D01*
X124537Y122000D02*X127037Y124500D01*
X124537Y122000D02*X127037D01*
X125500Y45500D02*Y42000D01*
X126000Y41500D01*
X127000D01*
X127500Y42000D01*
Y45500D02*Y42000D01*
X128700Y44700D02*X129500Y45500D01*
Y41500D01*
X128700D02*X130200D01*
X144000Y21000D02*X146000D01*
X146500Y20500D01*
Y19500D01*
X146000Y19000D02*X146500Y19500D01*
X144500Y19000D02*X146000D01*
X144500Y21000D02*Y17000D01*
X145300Y19000D02*X146500Y17000D01*
X147700Y18500D02*X149700Y21000D01*
X147700Y18500D02*X150200D01*
X149700Y21000D02*Y17000D01*
X134307Y12150D02*Y8150D01*
X135607Y12150D02*X136307Y11450D01*
Y8850D01*
X135607Y8150D02*X136307Y8850D01*
X133807Y8150D02*X135607D01*
X133807Y12150D02*X135607D01*
X139007D02*X139507Y11650D01*
X138007Y12150D02*X139007D01*
X137507Y11650D02*X138007Y12150D01*
X137507Y11650D02*Y8650D01*
X138007Y8150D01*
X139007Y10350D02*X139507Y9850D01*
X137507Y10350D02*X139007D01*
X138007Y8150D02*X139007D01*
X139507Y8650D01*
Y9850D02*Y8650D01*
X119307Y12150D02*Y8150D01*
X120607Y12150D02*X121307Y11450D01*
Y8850D01*
X120607Y8150D02*X121307Y8850D01*
X118807Y8150D02*X120607D01*
X118807Y12150D02*X120607D01*
X123007Y8150D02*X125007Y12150D01*
X122507D02*X125007D01*
X62507Y55650D02*X63807D01*
X61807Y56350D02*X62507Y55650D01*
X61807Y58950D02*Y56350D01*
Y58950D02*X62507Y59650D01*
X63807D01*
X65007Y59150D02*X65507Y59650D01*
X67007D01*
X67507Y59150D01*
Y58150D01*
X65007Y55650D02*X67507Y58150D01*
X65007Y55650D02*X67507D01*
X48500Y33500D02*X50500D01*
X51000Y33000D01*
Y32000D01*
X50500Y31500D02*X51000Y32000D01*
X49000Y31500D02*X50500D01*
X49000Y33500D02*Y29500D01*
X49800Y31500D02*X51000Y29500D01*
X52200Y33000D02*X52700Y33500D01*
X53700D01*
X54200Y33000D01*
X53700Y29500D02*X54200Y30000D01*
X52700Y29500D02*X53700D01*
X52200Y30000D02*X52700Y29500D01*
Y31700D02*X53700D01*
X54200Y33000D02*Y32200D01*
Y31200D02*Y30000D01*
Y31200D02*X53700Y31700D01*
X54200Y32200D02*X53700Y31700D01*
X102652Y139075D02*X104652D01*
X105152Y138575D01*
Y137575D01*
X104652Y137075D02*X105152Y137575D01*
X103152Y137075D02*X104652D01*
X103152Y139075D02*Y135075D01*
X103952Y137075D02*X105152Y135075D01*
X106352Y138575D02*X106852Y139075D01*
X108352D01*
X108852Y138575D01*
Y137575D01*
X106352Y135075D02*X108852Y137575D01*
X106352Y135075D02*X108852D01*
X101507Y85650D02*X102807D01*
X100807Y86350D02*X101507Y85650D01*
X100807Y88950D02*Y86350D01*
Y88950D02*X101507Y89650D01*
X102807D01*
X104007Y87150D02*X106007Y89650D01*
X104007Y87150D02*X106507D01*
X106007Y89650D02*Y85650D01*
X76002Y137575D02*Y133575D01*
X77302Y137575D02*X78002Y136875D01*
Y134275D01*
X77302Y133575D02*X78002Y134275D01*
X75502Y133575D02*X77302D01*
X75502Y137575D02*X77302D01*
X79202Y137075D02*X79702Y137575D01*
X81202D01*
X81702Y137075D01*
Y136075D01*
X79202Y133575D02*X81702Y136075D01*
X79202Y133575D02*X81702D01*
X76436Y146150D02*Y142150D01*
X77736Y146150D02*X78436Y145450D01*
Y142850D01*
X77736Y142150D02*X78436Y142850D01*
X75936Y142150D02*X77736D01*
X75936Y146150D02*X77736D01*
X79636Y145350D02*X80436Y146150D01*
Y142150D01*
X79636D02*X81136D01*
X76307Y128650D02*Y124650D01*
X77607Y128650D02*X78307Y127950D01*
Y125350D01*
X77607Y124650D02*X78307Y125350D01*
X75807Y124650D02*X77607D01*
X75807Y128650D02*X77607D01*
X79507Y128150D02*X80007Y128650D01*
X81007D01*
X81507Y128150D01*
X81007Y124650D02*X81507Y125150D01*
X80007Y124650D02*X81007D01*
X79507Y125150D02*X80007Y124650D01*
Y126850D02*X81007D01*
X81507Y128150D02*Y127350D01*
Y126350D02*Y125150D01*
Y126350D02*X81007Y126850D01*
X81507Y127350D02*X81007Y126850D01*
X75152Y85575D02*X77152D01*
X77652Y85075D01*
Y84075D01*
X77152Y83575D02*X77652Y84075D01*
X75652Y83575D02*X77152D01*
X75652Y85575D02*Y81575D01*
X76452Y83575D02*X77652Y81575D01*
X78852Y84775D02*X79652Y85575D01*
Y81575D01*
X78852D02*X80352D01*
X84355Y52182D02*X85655D01*
X83655Y52882D02*X84355Y52182D01*
X83655Y55482D02*Y52882D01*
Y55482D02*X84355Y56182D01*
X85655D01*
X86855Y55682D02*X87355Y56182D01*
X88355D01*
X88855Y55682D01*
X88355Y52182D02*X88855Y52682D01*
X87355Y52182D02*X88355D01*
X86855Y52682D02*X87355Y52182D01*
Y54382D02*X88355D01*
X88855Y55682D02*Y54882D01*
Y53882D02*Y52682D01*
Y53882D02*X88355Y54382D01*
X88855Y54882D02*X88355Y54382D01*
X63050Y104150D02*X64350D01*
X62350Y104850D02*X63050Y104150D01*
X62350Y107450D02*Y104850D01*
Y107450D02*X63050Y108150D01*
X64350D01*
X65550D02*X67550D01*
X65550D02*Y106150D01*
X66050Y106650D01*
X67050D01*
X67550Y106150D01*
Y104650D01*
X67050Y104150D02*X67550Y104650D01*
X66050Y104150D02*X67050D01*
X65550Y104650D02*X66050Y104150D01*
X59200Y101000D02*X60000D01*
Y97500D01*
X59500Y97000D02*X60000Y97500D01*
X59000Y97000D02*X59500D01*
X58500Y97500D02*X59000Y97000D01*
X58500Y98000D02*Y97500D01*
X61200Y100200D02*X62000Y101000D01*
Y97000D01*
X61200D02*X62700D01*
X63441Y90311D02*X64741D01*
X62741Y91011D02*X63441Y90311D01*
X62741Y93611D02*Y91011D01*
Y93611D02*X63441Y94311D01*
X64741D01*
X65941Y93511D02*X66741Y94311D01*
Y90311D01*
X65941D02*X67441D01*
X69307Y9650D02*Y5650D01*
X70607Y9650D02*X71307Y8950D01*
Y6350D01*
X70607Y5650D02*X71307Y6350D01*
X68807Y5650D02*X70607D01*
X68807Y9650D02*X70607D01*
X72507D02*X74507D01*
X72507D02*Y7650D01*
X73007Y8150D01*
X74007D01*
X74507Y7650D01*
Y6150D01*
X74007Y5650D02*X74507Y6150D01*
X73007Y5650D02*X74007D01*
X72507Y6150D02*X73007Y5650D01*
X69350Y18650D02*Y14650D01*
X70650Y18650D02*X71350Y17950D01*
Y15350D01*
X70650Y14650D02*X71350Y15350D01*
X68850Y14650D02*X70650D01*
X68850Y18650D02*X70650D01*
X72550Y16150D02*X74550Y18650D01*
X72550Y16150D02*X75050D01*
X74550Y18650D02*Y14650D01*
X104307Y12150D02*Y8150D01*
X105607Y12150D02*X106307Y11450D01*
Y8850D01*
X105607Y8150D02*X106307Y8850D01*
X103807Y8150D02*X105607D01*
X103807Y12150D02*X105607D01*
X107507Y8650D02*X108007Y8150D01*
X107507Y9450D02*Y8650D01*
Y9450D02*X108207Y10150D01*
X108807D01*
X109507Y9450D01*
Y8650D01*
X109007Y8150D02*X109507Y8650D01*
X108007Y8150D02*X109007D01*
X107507Y10850D02*X108207Y10150D01*
X107507Y11650D02*Y10850D01*
Y11650D02*X108007Y12150D01*
X109007D01*
X109507Y11650D01*
Y10850D01*
X108807Y10150D02*X109507Y10850D01*
X89307Y12150D02*Y8150D01*
X90607Y12150D02*X91307Y11450D01*
Y8850D01*
X90607Y8150D02*X91307Y8850D01*
X88807Y8150D02*X90607D01*
X88807Y12150D02*X90607D01*
X93007Y8150D02*X94507Y10150D01*
Y11650D02*Y10150D01*
X94007Y12150D02*X94507Y11650D01*
X93007Y12150D02*X94007D01*
X92507Y11650D02*X93007Y12150D01*
X92507Y11650D02*Y10650D01*
X93007Y10150D01*
X94507D01*
M02*
