G04 start of page 6 for group -4063 idx -4063 *
G04 Title: (unknown), componentmask *
G04 Creator: pcb 20140316 *
G04 CreationDate: Mon 29 Jan 2018 01:28:48 AM GMT UTC *
G04 For: railfan *
G04 Format: Gerber/RS-274X *
G04 PCB-Dimensions (mil): 2000.00 1500.00 *
G04 PCB-Coordinate-Origin: lower left *
%MOIN*%
%FSLAX25Y25*%
%LNTOPMASK*%
%ADD53C,0.0001*%
%ADD52R,0.1005X0.1005*%
%ADD51R,0.0438X0.0438*%
%ADD50R,0.0410X0.0410*%
%ADD49R,0.0190X0.0190*%
%ADD48R,0.0227X0.0227*%
%ADD47R,0.0572X0.0572*%
%ADD46C,0.0720*%
%ADD45C,0.1630*%
%ADD44C,0.2997*%
G54D44*X17000Y17000D03*
G54D45*X40700Y49200D03*
G54D46*X51400Y71100D03*
Y61300D03*
G54D44*X183000Y133000D03*
Y17000D03*
X17000Y133000D03*
G54D45*X40700Y100900D03*
G54D46*X51400Y79100D03*
Y88900D03*
G54D47*X64521Y79000D02*X65307D01*
X64521Y86086D02*X65307D01*
X64607Y71043D02*X65393D01*
X64607Y63957D02*X65393D01*
G54D48*X73717Y76575D02*X75587D01*
X73717Y73425D02*X75587D01*
X80413D02*X82283D01*
X80413Y76575D02*X82283D01*
G54D47*X82457Y62393D02*Y61607D01*
X89543Y62393D02*Y61607D01*
X110957Y88393D02*Y87607D01*
X118043Y88393D02*Y87607D01*
G54D49*X124311Y71250D02*X128917D01*
X101083D02*X105689D01*
X124311Y73750D02*X128917D01*
X124311Y76250D02*X128917D01*
X101083D02*X105689D01*
X101083Y73750D02*X105689D01*
X124311Y53750D02*X128917D01*
X124311Y56250D02*X128917D01*
X124311Y58750D02*X128917D01*
X124311Y61250D02*X128917D01*
X124311Y63750D02*X128917D01*
X124311Y66250D02*X128917D01*
X124311Y68750D02*X128917D01*
X101083D02*X105689D01*
X101083Y66250D02*X105689D01*
X101083Y63750D02*X105689D01*
X101083Y61250D02*X105689D01*
X101083Y58750D02*X105689D01*
X101083Y56250D02*X105689D01*
X101083Y53750D02*X105689D01*
G54D50*X162433Y36441D02*Y30929D01*
X146685Y36441D02*Y30929D01*
X130937Y36441D02*Y30929D01*
X123063Y25457D02*Y19945D01*
X138811Y25457D02*Y19945D01*
G54D47*X129107Y13543D02*X129893D01*
G54D50*X154559Y25457D02*Y19945D01*
G54D48*X156224Y13283D02*Y11413D01*
X153075Y13283D02*Y11413D01*
X149925Y13283D02*Y11413D01*
X146776Y6587D02*Y4717D01*
Y13283D02*Y11413D01*
X149925Y6587D02*Y4717D01*
X153075Y6587D02*Y4717D01*
X156224Y6587D02*Y4717D01*
G54D47*X129107Y6457D02*X129893D01*
G54D50*X115189Y36441D02*Y30929D01*
X99441Y36441D02*Y30929D01*
G54D47*X55500Y16893D02*Y16107D01*
G54D48*X65413Y30425D02*X67283D01*
X65413Y33575D02*X67283D01*
X58717D02*X60587D01*
X58717Y30425D02*X60587D01*
G54D47*X55457Y7893D02*Y7107D01*
X62543Y7893D02*Y7107D01*
X62586Y16893D02*Y16107D01*
G54D50*X91567Y25457D02*Y19945D01*
X107315Y25457D02*Y19945D01*
G54D47*X114107Y13543D02*X114893D01*
X114107Y6457D02*X114893D01*
X99107Y13543D02*X99893D01*
X99107Y6457D02*X99893D01*
X84107Y13543D02*X84893D01*
X84107Y6457D02*X84893D01*
X155521Y138086D02*X156307D01*
X155521Y131000D02*X156307D01*
X145607Y138043D02*X146393D01*
X145607Y130957D02*X146393D01*
G54D51*X131311Y131094D02*X135405D01*
X123595Y137000D02*X135405D01*
G54D52*X119971D02*X121861D01*
G54D53*G36*
X124742Y133695D02*X128006Y136959D01*
X129850Y135115D01*
X126586Y131851D01*
X124742Y133695D01*
G37*
G54D50*X130937Y123055D02*Y117543D01*
X115189Y123055D02*Y117543D01*
X123063Y112071D02*Y106559D01*
X138811Y112071D02*Y106559D01*
G54D53*G36*
X126586Y142149D02*X129850Y138885D01*
X128006Y137041D01*
X124742Y140305D01*
X126586Y142149D01*
G37*
G54D51*X131311Y142906D02*X135405D01*
G54D50*X162433Y123055D02*Y117543D01*
X146685Y123055D02*Y117543D01*
X154559Y112071D02*Y106559D01*
G54D47*X71957Y109393D02*Y108607D01*
X79043Y109393D02*Y108607D01*
G54D50*X91567Y112071D02*Y106559D01*
X107315Y112071D02*Y106559D01*
G54D48*X90369Y141799D02*X92239D01*
X90369Y138650D02*X92239D01*
X90369Y135500D02*X92239D01*
X90369Y132351D02*X92239D01*
X97065D02*X98935D01*
X97065Y135500D02*X98935D01*
X97065Y138650D02*X98935D01*
X97065Y141799D02*X98935D01*
G54D50*X99441Y123055D02*Y117543D01*
G54D47*X60457Y135893D02*Y135107D01*
Y126893D02*Y126107D01*
Y144893D02*Y144107D01*
X67543Y135893D02*Y135107D01*
Y126893D02*Y126107D01*
Y144893D02*Y144107D01*
M02*
