G04 start of page 12 for group -3984 idx -3984 *
G04 Title: (unknown), fab *
G04 Creator: pcb 20140316 *
G04 CreationDate: Sun 30 Dec 2018 07:44:10 PM GMT UTC *
G04 For: railfan *
G04 Format: Gerber/RS-274X *
G04 PCB-Dimensions (mil): 2000.00 1500.00 *
G04 PCB-Coordinate-Origin: lower left *
%MOIN*%
%FSLAX25Y25*%
%LNFAB*%
%ADD72C,0.0100*%
%ADD71C,0.0075*%
%ADD70C,0.0060*%
%ADD69R,0.0080X0.0080*%
G54D69*X182200Y133000D02*G75*G03X183800Y133000I800J0D01*G01*
G75*G03X182200Y133000I-800J0D01*G01*
X16200Y17000D02*G75*G03X17800Y17000I800J0D01*G01*
G75*G03X16200Y17000I-800J0D01*G01*
Y133000D02*G75*G03X17800Y133000I800J0D01*G01*
G75*G03X16200Y133000I-800J0D01*G01*
X182200Y17000D02*G75*G03X183800Y17000I800J0D01*G01*
G75*G03X182200Y17000I-800J0D01*G01*
X14200Y161250D02*G75*G03X15800Y161250I800J0D01*G01*
G75*G03X14200Y161250I-800J0D01*G01*
G54D70*X135000Y163500D02*X136500Y160500D01*
X138000Y163500D01*
X136500Y160500D02*Y157500D01*
X139800Y160800D02*X142050D01*
X139800Y157500D02*X142800D01*
X139800Y163500D02*Y157500D01*
Y163500D02*X142800D01*
X147600D02*X148350Y162750D01*
X145350Y163500D02*X147600D01*
X144600Y162750D02*X145350Y163500D01*
X144600Y162750D02*Y161250D01*
X145350Y160500D01*
X147600D01*
X148350Y159750D01*
Y158250D01*
X147600Y157500D02*X148350Y158250D01*
X145350Y157500D02*X147600D01*
X144600Y158250D02*X145350Y157500D01*
X98000Y159750D02*X101000Y163500D01*
X98000Y159750D02*X101750D01*
X101000Y163500D02*Y157500D01*
X45000Y158250D02*X45750Y157500D01*
X45000Y162750D02*Y158250D01*
Y162750D02*X45750Y163500D01*
X47250D01*
X48000Y162750D01*
Y158250D01*
X47250Y157500D02*X48000Y158250D01*
X45750Y157500D02*X47250D01*
X45000Y159000D02*X48000Y162000D01*
X49800Y157500D02*X50550D01*
X52350Y162300D02*X53550Y163500D01*
Y157500D01*
X52350D02*X54600D01*
X56400Y162750D02*X57150Y163500D01*
X59400D01*
X60150Y162750D01*
Y161250D01*
X56400Y157500D02*X60150Y161250D01*
X56400Y157500D02*X60150D01*
X62700D02*X64950Y160500D01*
Y162750D02*Y160500D01*
X64200Y163500D02*X64950Y162750D01*
X62700Y163500D02*X64200D01*
X61950Y162750D02*X62700Y163500D01*
X61950Y162750D02*Y161250D01*
X62700Y160500D01*
X64950D01*
X39500Y102100D02*X41900Y99700D01*
X39500D02*X41900Y102100D01*
X39500Y50400D02*X41900Y48000D01*
X39500D02*X41900Y50400D01*
X13800Y177450D02*X16200Y175050D01*
X13800D02*X16200Y177450D01*
X135000Y178500D02*X136500Y175500D01*
X138000Y178500D01*
X136500Y175500D02*Y172500D01*
X139800Y175800D02*X142050D01*
X139800Y172500D02*X142800D01*
X139800Y178500D02*Y172500D01*
Y178500D02*X142800D01*
X147600D02*X148350Y177750D01*
X145350Y178500D02*X147600D01*
X144600Y177750D02*X145350Y178500D01*
X144600Y177750D02*Y176250D01*
X145350Y175500D01*
X147600D01*
X148350Y174750D01*
Y173250D01*
X147600Y172500D02*X148350Y173250D01*
X145350Y172500D02*X147600D01*
X144600Y173250D02*X145350Y172500D01*
X98000Y177750D02*X98750Y178500D01*
X101000D01*
X101750Y177750D01*
Y176250D01*
X98000Y172500D02*X101750Y176250D01*
X98000Y172500D02*X101750D01*
X45000Y173250D02*X45750Y172500D01*
X45000Y177750D02*Y173250D01*
Y177750D02*X45750Y178500D01*
X47250D01*
X48000Y177750D01*
Y173250D01*
X47250Y172500D02*X48000Y173250D01*
X45750Y172500D02*X47250D01*
X45000Y174000D02*X48000Y177000D01*
X49800Y172500D02*X50550D01*
X52350Y173250D02*X53100Y172500D01*
X52350Y177750D02*Y173250D01*
Y177750D02*X53100Y178500D01*
X54600D01*
X55350Y177750D01*
Y173250D01*
X54600Y172500D02*X55350Y173250D01*
X53100Y172500D02*X54600D01*
X52350Y174000D02*X55350Y177000D01*
X57900Y172500D02*X60150Y175500D01*
Y177750D02*Y175500D01*
X59400Y178500D02*X60150Y177750D01*
X57900Y178500D02*X59400D01*
X57150Y177750D02*X57900Y178500D01*
X57150Y177750D02*Y176250D01*
X57900Y175500D01*
X60150D01*
X61950Y177300D02*X63150Y178500D01*
Y172500D01*
X61950D02*X64200D01*
X51400Y80700D02*Y77500D01*
X49800Y79100D02*X53000D01*
X51400Y72700D02*Y69500D01*
X49800Y71100D02*X53000D01*
X51400Y90500D02*Y87300D01*
X49800Y88900D02*X53000D01*
X51400Y62900D02*Y59700D01*
X49800Y61300D02*X53000D01*
X15000Y192850D02*Y189650D01*
X13400Y191250D02*X16600D01*
X135000Y193500D02*X136500Y190500D01*
X138000Y193500D01*
X136500Y190500D02*Y187500D01*
X139800Y190800D02*X142050D01*
X139800Y187500D02*X142800D01*
X139800Y193500D02*Y187500D01*
Y193500D02*X142800D01*
X147600D02*X148350Y192750D01*
X145350Y193500D02*X147600D01*
X144600Y192750D02*X145350Y193500D01*
X144600Y192750D02*Y191250D01*
X145350Y190500D01*
X147600D01*
X148350Y189750D01*
Y188250D01*
X147600Y187500D02*X148350Y188250D01*
X145350Y187500D02*X147600D01*
X144600Y188250D02*X145350Y187500D01*
X98000Y189750D02*X101000Y193500D01*
X98000Y189750D02*X101750D01*
X101000Y193500D02*Y187500D01*
X45000Y188250D02*X45750Y187500D01*
X45000Y192750D02*Y188250D01*
Y192750D02*X45750Y193500D01*
X47250D01*
X48000Y192750D01*
Y188250D01*
X47250Y187500D02*X48000Y188250D01*
X45750Y187500D02*X47250D01*
X45000Y189000D02*X48000Y192000D01*
X49800Y187500D02*X50550D01*
X52350Y188250D02*X53100Y187500D01*
X52350Y192750D02*Y188250D01*
Y192750D02*X53100Y193500D01*
X54600D01*
X55350Y192750D01*
Y188250D01*
X54600Y187500D02*X55350Y188250D01*
X53100Y187500D02*X54600D01*
X52350Y189000D02*X55350Y192000D01*
X57150Y192750D02*X57900Y193500D01*
X59400D01*
X60150Y192750D01*
X59400Y187500D02*X60150Y188250D01*
X57900Y187500D02*X59400D01*
X57150Y188250D02*X57900Y187500D01*
Y190800D02*X59400D01*
X60150Y192750D02*Y191550D01*
Y190050D02*Y188250D01*
Y190050D02*X59400Y190800D01*
X60150Y191550D02*X59400Y190800D01*
X64200Y193500D02*X64950Y192750D01*
X62700Y193500D02*X64200D01*
X61950Y192750D02*X62700Y193500D01*
X61950Y192750D02*Y188250D01*
X62700Y187500D01*
X64200Y190800D02*X64950Y190050D01*
X61950Y190800D02*X64200D01*
X62700Y187500D02*X64200D01*
X64950Y188250D01*
Y190050D02*Y188250D01*
X140000Y131000D02*Y129400D01*
Y131000D02*X141387Y131800D01*
X140000Y131000D02*X138613Y131800D01*
X151000Y131000D02*Y129400D01*
Y131000D02*X152387Y131800D01*
X151000Y131000D02*X149613Y131800D01*
X67000Y117500D02*Y115900D01*
Y117500D02*X68387Y118300D01*
X67000Y117500D02*X65613Y118300D01*
X58000Y117500D02*Y115900D01*
Y117500D02*X59387Y118300D01*
X58000Y117500D02*X56613Y118300D01*
X52500Y53500D02*Y51900D01*
Y53500D02*X53887Y54300D01*
X52500Y53500D02*X51113Y54300D01*
X126000Y144000D02*Y142400D01*
Y144000D02*X127387Y144800D01*
X126000Y144000D02*X124613Y144800D01*
X122500Y144000D02*Y142400D01*
Y144000D02*X123887Y144800D01*
X122500Y144000D02*X121113Y144800D01*
X119000Y144000D02*Y142400D01*
Y144000D02*X120387Y144800D01*
X119000Y144000D02*X117613Y144800D01*
X115500Y144000D02*Y142400D01*
Y144000D02*X116887Y144800D01*
X115500Y144000D02*X114113Y144800D01*
X126000Y130000D02*Y128400D01*
Y130000D02*X127387Y130800D01*
X126000Y130000D02*X124613Y130800D01*
X122500Y130000D02*Y128400D01*
Y130000D02*X123887Y130800D01*
X122500Y130000D02*X121113Y130800D01*
X119000Y130000D02*Y128400D01*
Y130000D02*X120387Y130800D01*
X119000Y130000D02*X117613Y130800D01*
X115500Y130000D02*Y128400D01*
Y130000D02*X116887Y130800D01*
X115500Y130000D02*X114113Y130800D01*
X112500Y137000D02*Y135400D01*
Y137000D02*X113887Y137800D01*
X112500Y137000D02*X111113Y137800D01*
X112500Y140500D02*Y138900D01*
Y140500D02*X113887Y141300D01*
X112500Y140500D02*X111113Y141300D01*
X112500Y133500D02*Y131900D01*
Y133500D02*X113887Y134300D01*
X112500Y133500D02*X111113Y134300D01*
X110500Y144000D02*Y142400D01*
Y144000D02*X111887Y144800D01*
X110500Y144000D02*X109113Y144800D01*
X110500Y130000D02*Y128400D01*
Y130000D02*X111887Y130800D01*
X110500Y130000D02*X109113Y130800D01*
X43500Y66500D02*Y64900D01*
Y66500D02*X44887Y67300D01*
X43500Y66500D02*X42113Y67300D01*
X43500Y62000D02*Y60400D01*
Y62000D02*X44887Y62800D01*
X43500Y62000D02*X42113Y62800D01*
X39000Y66500D02*Y64900D01*
Y66500D02*X40387Y67300D01*
X39000Y66500D02*X37613Y67300D01*
X39000Y62000D02*Y60400D01*
Y62000D02*X40387Y62800D01*
X39000Y62000D02*X37613Y62800D01*
X59000Y64000D02*Y62400D01*
Y64000D02*X60387Y64800D01*
X59000Y64000D02*X57613Y64800D01*
X71000Y64000D02*Y62400D01*
Y64000D02*X72387Y64800D01*
X71000Y64000D02*X69613Y64800D01*
X59000Y86000D02*Y84400D01*
Y86000D02*X60387Y86800D01*
X59000Y86000D02*X57613Y86800D01*
X71000Y86000D02*Y84400D01*
Y86000D02*X72387Y86800D01*
X71000Y86000D02*X69613Y86800D01*
X162000Y9000D02*Y7400D01*
Y9000D02*X163387Y9800D01*
X162000Y9000D02*X160613Y9800D01*
X162000Y5652D02*Y4052D01*
Y5652D02*X163387Y6452D01*
X162000Y5652D02*X160613Y6452D01*
X105000Y6500D02*Y4900D01*
Y6500D02*X106387Y7300D01*
X105000Y6500D02*X103613Y7300D01*
X90000Y6500D02*Y4900D01*
Y6500D02*X91387Y7300D01*
X90000Y6500D02*X88613Y7300D01*
X77500Y11500D02*Y9900D01*
Y11500D02*X78887Y12300D01*
X77500Y11500D02*X76113Y12300D01*
X97500Y49000D02*Y47400D01*
Y49000D02*X98887Y49800D01*
X97500Y49000D02*X96113Y49800D01*
X106000Y51750D02*Y50150D01*
Y51750D02*X107387Y52550D01*
X106000Y51750D02*X104613Y52550D01*
X81500Y45500D02*Y43900D01*
Y45500D02*X82887Y46300D01*
X81500Y45500D02*X80113Y46300D01*
X81500Y49500D02*Y47900D01*
Y49500D02*X82887Y50300D01*
X81500Y49500D02*X80113Y50300D01*
X74000Y26500D02*Y24900D01*
Y26500D02*X75387Y27300D01*
X74000Y26500D02*X72613Y27300D01*
X74000Y30500D02*Y28900D01*
Y30500D02*X75387Y31300D01*
X74000Y30500D02*X72613Y31300D01*
X117500Y46750D02*Y45150D01*
Y46750D02*X118887Y47550D01*
X117500Y46750D02*X116113Y47550D01*
X100000Y42000D02*Y40400D01*
Y42000D02*X101387Y42800D01*
X100000Y42000D02*X98613Y42800D01*
X117500Y65000D02*Y63400D01*
Y65000D02*X118887Y65800D01*
X117500Y65000D02*X116113Y65800D01*
X115000Y67000D02*Y65400D01*
Y67000D02*X116387Y67800D01*
X115000Y67000D02*X113613Y67800D01*
X112500Y65000D02*Y63400D01*
Y65000D02*X113887Y65800D01*
X112500Y65000D02*X111113Y65800D01*
X110000Y67000D02*Y65400D01*
Y67000D02*X111387Y67800D01*
X110000Y67000D02*X108613Y67800D01*
X107000Y47500D02*Y45900D01*
Y47500D02*X108387Y48300D01*
X107000Y47500D02*X105613Y48300D01*
X80500Y117500D02*Y115900D01*
Y117500D02*X81887Y118300D01*
X80500Y117500D02*X79113Y118300D01*
X184146Y106500D02*Y104900D01*
Y106500D02*X185533Y107300D01*
X184146Y106500D02*X182759Y107300D01*
X139854Y106500D02*Y104900D01*
Y106500D02*X141241Y107300D01*
X139854Y106500D02*X138467Y107300D01*
X130012Y106500D02*Y104900D01*
Y106500D02*X131398Y107300D01*
X130012Y106500D02*X128625Y107300D01*
X84000Y112500D02*Y110900D01*
Y112500D02*X85387Y113300D01*
X84000Y112500D02*X82613Y113300D01*
X84000Y109000D02*Y107400D01*
Y109000D02*X85387Y109800D01*
X84000Y109000D02*X82613Y109800D01*
X84000Y105500D02*Y103900D01*
Y105500D02*X85387Y106300D01*
X84000Y105500D02*X82613Y106300D01*
X87500Y112500D02*Y110900D01*
Y112500D02*X88887Y113300D01*
X87500Y112500D02*X86113Y113300D01*
X87500Y109000D02*Y107400D01*
Y109000D02*X88887Y109800D01*
X87500Y109000D02*X86113Y109800D01*
X87500Y105500D02*Y103900D01*
Y105500D02*X88887Y106300D01*
X87500Y105500D02*X86113Y106300D01*
X193988Y43500D02*Y41900D01*
Y43500D02*X195375Y44300D01*
X193988Y43500D02*X192602Y44300D01*
X184146Y43500D02*Y41900D01*
Y43500D02*X185533Y44300D01*
X184146Y43500D02*X182759Y44300D01*
X130012Y43500D02*Y41900D01*
Y43500D02*X131398Y44300D01*
X130012Y43500D02*X128625Y44300D01*
X151500Y41000D02*Y39400D01*
Y41000D02*X152887Y41800D01*
X151500Y41000D02*X150113Y41800D01*
X151500Y36000D02*Y34400D01*
Y36000D02*X152887Y36800D01*
X151500Y36000D02*X150113Y36800D01*
X122000Y38500D02*Y36900D01*
Y38500D02*X123387Y39300D01*
X122000Y38500D02*X120613Y39300D01*
X119000Y70000D02*Y68400D01*
Y70000D02*X120387Y70800D01*
X119000Y70000D02*X117613Y70800D01*
X118000Y39250D02*Y37650D01*
Y39250D02*X119387Y40050D01*
X118000Y39250D02*X116613Y40050D01*
X107500Y115000D02*Y113400D01*
Y115000D02*X108887Y115800D01*
X107500Y115000D02*X106113Y115800D01*
X15000Y206250D02*Y204650D01*
Y206250D02*X16387Y207050D01*
X15000Y206250D02*X13613Y207050D01*
X135000Y208500D02*X136500Y205500D01*
X138000Y208500D01*
X136500Y205500D02*Y202500D01*
X139800Y205800D02*X142050D01*
X139800Y202500D02*X142800D01*
X139800Y208500D02*Y202500D01*
Y208500D02*X142800D01*
X147600D02*X148350Y207750D01*
X145350Y208500D02*X147600D01*
X144600Y207750D02*X145350Y208500D01*
X144600Y207750D02*Y206250D01*
X145350Y205500D01*
X147600D01*
X148350Y204750D01*
Y203250D01*
X147600Y202500D02*X148350Y203250D01*
X145350Y202500D02*X147600D01*
X144600Y203250D02*X145350Y202500D01*
X100250Y208500D02*X101000Y207750D01*
X98750Y208500D02*X100250D01*
X98000Y207750D02*X98750Y208500D01*
X98000Y207750D02*Y203250D01*
X98750Y202500D01*
X100250Y205800D02*X101000Y205050D01*
X98000Y205800D02*X100250D01*
X98750Y202500D02*X100250D01*
X101000Y203250D01*
Y205050D02*Y203250D01*
X102800Y207750D02*X103550Y208500D01*
X105050D01*
X105800Y207750D01*
X105050Y202500D02*X105800Y203250D01*
X103550Y202500D02*X105050D01*
X102800Y203250D02*X103550Y202500D01*
Y205800D02*X105050D01*
X105800Y207750D02*Y206550D01*
Y205050D02*Y203250D01*
Y205050D02*X105050Y205800D01*
X105800Y206550D02*X105050Y205800D01*
X45000Y203250D02*X45750Y202500D01*
X45000Y207750D02*Y203250D01*
Y207750D02*X45750Y208500D01*
X47250D01*
X48000Y207750D01*
Y203250D01*
X47250Y202500D02*X48000Y203250D01*
X45750Y202500D02*X47250D01*
X45000Y204000D02*X48000Y207000D01*
X49800Y202500D02*X50550D01*
X52350Y203250D02*X53100Y202500D01*
X52350Y207750D02*Y203250D01*
Y207750D02*X53100Y208500D01*
X54600D01*
X55350Y207750D01*
Y203250D01*
X54600Y202500D02*X55350Y203250D01*
X53100Y202500D02*X54600D01*
X52350Y204000D02*X55350Y207000D01*
X57150Y207300D02*X58350Y208500D01*
Y202500D01*
X57150D02*X59400D01*
X61200Y207750D02*X61950Y208500D01*
X64200D01*
X64950Y207750D01*
Y206250D01*
X61200Y202500D02*X64950Y206250D01*
X61200Y202500D02*X64950D01*
X3000Y223500D02*X3750Y222750D01*
X750Y223500D02*X3000D01*
X0Y222750D02*X750Y223500D01*
X0Y222750D02*Y221250D01*
X750Y220500D01*
X3000D01*
X3750Y219750D01*
Y218250D01*
X3000Y217500D02*X3750Y218250D01*
X750Y217500D02*X3000D01*
X0Y218250D02*X750Y217500D01*
X5550Y220500D02*Y218250D01*
X6300Y217500D01*
X8550Y220500D02*Y216000D01*
X7800Y215250D02*X8550Y216000D01*
X6300Y215250D02*X7800D01*
X5550Y216000D02*X6300Y215250D01*
Y217500D02*X7800D01*
X8550Y218250D01*
X11100Y219750D02*Y217500D01*
Y219750D02*X11850Y220500D01*
X12600D01*
X13350Y219750D01*
Y217500D01*
Y219750D02*X14100Y220500D01*
X14850D01*
X15600Y219750D01*
Y217500D01*
X10350Y220500D02*X11100Y219750D01*
X17400Y223500D02*Y217500D01*
Y218250D02*X18150Y217500D01*
X19650D01*
X20400Y218250D01*
Y219750D02*Y218250D01*
X19650Y220500D02*X20400Y219750D01*
X18150Y220500D02*X19650D01*
X17400Y219750D02*X18150Y220500D01*
X22200Y219750D02*Y218250D01*
Y219750D02*X22950Y220500D01*
X24450D01*
X25200Y219750D01*
Y218250D01*
X24450Y217500D02*X25200Y218250D01*
X22950Y217500D02*X24450D01*
X22200Y218250D02*X22950Y217500D01*
X27000Y223500D02*Y218250D01*
X27750Y217500D01*
X0Y214250D02*X29250D01*
X41750Y223500D02*Y217500D01*
X43700Y223500D02*X44750Y222450D01*
Y218550D01*
X43700Y217500D02*X44750Y218550D01*
X41000Y217500D02*X43700D01*
X41000Y223500D02*X43700D01*
G54D71*X46550Y222000D02*Y221850D01*
G54D70*Y219750D02*Y217500D01*
X50300Y220500D02*X51050Y219750D01*
X48800Y220500D02*X50300D01*
X48050Y219750D02*X48800Y220500D01*
X48050Y219750D02*Y218250D01*
X48800Y217500D01*
X51050Y220500D02*Y218250D01*
X51800Y217500D01*
X48800D02*X50300D01*
X51050Y218250D01*
X54350Y219750D02*Y217500D01*
Y219750D02*X55100Y220500D01*
X55850D01*
X56600Y219750D01*
Y217500D01*
Y219750D02*X57350Y220500D01*
X58100D01*
X58850Y219750D01*
Y217500D01*
X53600Y220500D02*X54350Y219750D01*
X60650Y217500D02*X61400D01*
X65900Y218250D02*X66650Y217500D01*
X65900Y222750D02*X66650Y223500D01*
X65900Y222750D02*Y218250D01*
X68450Y223500D02*X69950D01*
X69200D02*Y217500D01*
X68450D02*X69950D01*
X72500Y219750D02*Y217500D01*
Y219750D02*X73250Y220500D01*
X74000D01*
X74750Y219750D01*
Y217500D01*
X71750Y220500D02*X72500Y219750D01*
X77300Y220500D02*X79550D01*
X76550Y219750D02*X77300Y220500D01*
X76550Y219750D02*Y218250D01*
X77300Y217500D01*
X79550D01*
X81350Y223500D02*Y217500D01*
Y219750D02*X82100Y220500D01*
X83600D01*
X84350Y219750D01*
Y217500D01*
X86150Y223500D02*X86900Y222750D01*
Y218250D01*
X86150Y217500D02*X86900Y218250D01*
X41000Y214250D02*X88700D01*
X96050Y217500D02*X98000D01*
X95000Y218550D02*X96050Y217500D01*
X95000Y222450D02*Y218550D01*
Y222450D02*X96050Y223500D01*
X98000D01*
X99800Y219750D02*Y218250D01*
Y219750D02*X100550Y220500D01*
X102050D01*
X102800Y219750D01*
Y218250D01*
X102050Y217500D02*X102800Y218250D01*
X100550Y217500D02*X102050D01*
X99800Y218250D02*X100550Y217500D01*
X104600Y220500D02*Y218250D01*
X105350Y217500D01*
X106850D01*
X107600Y218250D01*
Y220500D02*Y218250D01*
X110150Y219750D02*Y217500D01*
Y219750D02*X110900Y220500D01*
X111650D01*
X112400Y219750D01*
Y217500D01*
X109400Y220500D02*X110150Y219750D01*
X114950Y223500D02*Y218250D01*
X115700Y217500D01*
X114200Y221250D02*X115700D01*
X95000Y214250D02*X117200D01*
X130750Y223500D02*Y217500D01*
X130000Y223500D02*X133000D01*
X133750Y222750D01*
Y221250D01*
X133000Y220500D02*X133750Y221250D01*
X130750Y220500D02*X133000D01*
X135550Y223500D02*Y218250D01*
X136300Y217500D01*
X140050Y220500D02*X140800Y219750D01*
X138550Y220500D02*X140050D01*
X137800Y219750D02*X138550Y220500D01*
X137800Y219750D02*Y218250D01*
X138550Y217500D01*
X140800Y220500D02*Y218250D01*
X141550Y217500D01*
X138550D02*X140050D01*
X140800Y218250D01*
X144100Y223500D02*Y218250D01*
X144850Y217500D01*
X143350Y221250D02*X144850D01*
X147100Y217500D02*X149350D01*
X146350Y218250D02*X147100Y217500D01*
X146350Y219750D02*Y218250D01*
Y219750D02*X147100Y220500D01*
X148600D01*
X149350Y219750D01*
X146350Y219000D02*X149350D01*
Y219750D02*Y219000D01*
X154150Y223500D02*Y217500D01*
X153400D02*X154150Y218250D01*
X151900Y217500D02*X153400D01*
X151150Y218250D02*X151900Y217500D01*
X151150Y219750D02*Y218250D01*
Y219750D02*X151900Y220500D01*
X153400D01*
X154150Y219750D01*
X157450Y220500D02*Y219750D01*
Y218250D02*Y217500D01*
X155950Y222750D02*Y222000D01*
Y222750D02*X156700Y223500D01*
X158200D01*
X158950Y222750D01*
Y222000D01*
X157450Y220500D02*X158950Y222000D01*
X130000Y214250D02*X160750D01*
X0Y238500D02*X3000D01*
X1500D02*Y232500D01*
X4800Y238500D02*Y232500D01*
Y234750D02*X5550Y235500D01*
X7050D01*
X7800Y234750D01*
Y232500D01*
X10350D02*X12600D01*
X9600Y233250D02*X10350Y232500D01*
X9600Y234750D02*Y233250D01*
Y234750D02*X10350Y235500D01*
X11850D01*
X12600Y234750D01*
X9600Y234000D02*X12600D01*
Y234750D02*Y234000D01*
X15150Y234750D02*Y232500D01*
Y234750D02*X15900Y235500D01*
X17400D01*
X14400D02*X15150Y234750D01*
X19950Y232500D02*X22200D01*
X19200Y233250D02*X19950Y232500D01*
X19200Y234750D02*Y233250D01*
Y234750D02*X19950Y235500D01*
X21450D01*
X22200Y234750D01*
X19200Y234000D02*X22200D01*
Y234750D02*Y234000D01*
X28950Y235500D02*X29700Y234750D01*
X27450Y235500D02*X28950D01*
X26700Y234750D02*X27450Y235500D01*
X26700Y234750D02*Y233250D01*
X27450Y232500D01*
X29700Y235500D02*Y233250D01*
X30450Y232500D01*
X27450D02*X28950D01*
X29700Y233250D01*
X33000Y234750D02*Y232500D01*
Y234750D02*X33750Y235500D01*
X35250D01*
X32250D02*X33000Y234750D01*
X37800Y232500D02*X40050D01*
X37050Y233250D02*X37800Y232500D01*
X37050Y234750D02*Y233250D01*
Y234750D02*X37800Y235500D01*
X39300D01*
X40050Y234750D01*
X37050Y234000D02*X40050D01*
Y234750D02*Y234000D01*
X44550Y234750D02*X47550Y238500D01*
X44550Y234750D02*X48300D01*
X47550Y238500D02*Y232500D01*
X55800Y238500D02*Y232500D01*
X55050D02*X55800Y233250D01*
X53550Y232500D02*X55050D01*
X52800Y233250D02*X53550Y232500D01*
X52800Y234750D02*Y233250D01*
Y234750D02*X53550Y235500D01*
X55050D01*
X55800Y234750D01*
G54D71*X57600Y237000D02*Y236850D01*
G54D70*Y234750D02*Y232500D01*
X59850Y237750D02*Y232500D01*
Y237750D02*X60600Y238500D01*
X61350D01*
X59100Y235500D02*X60600D01*
X63600Y237750D02*Y232500D01*
Y237750D02*X64350Y238500D01*
X65100D01*
X62850Y235500D02*X64350D01*
X67350Y232500D02*X69600D01*
X66600Y233250D02*X67350Y232500D01*
X66600Y234750D02*Y233250D01*
Y234750D02*X67350Y235500D01*
X68850D01*
X69600Y234750D01*
X66600Y234000D02*X69600D01*
Y234750D02*Y234000D01*
X72150Y234750D02*Y232500D01*
Y234750D02*X72900Y235500D01*
X74400D01*
X71400D02*X72150Y234750D01*
X76950Y232500D02*X79200D01*
X76200Y233250D02*X76950Y232500D01*
X76200Y234750D02*Y233250D01*
Y234750D02*X76950Y235500D01*
X78450D01*
X79200Y234750D01*
X76200Y234000D02*X79200D01*
Y234750D02*Y234000D01*
X81750Y234750D02*Y232500D01*
Y234750D02*X82500Y235500D01*
X83250D01*
X84000Y234750D01*
Y232500D01*
X81000Y235500D02*X81750Y234750D01*
X86550Y238500D02*Y233250D01*
X87300Y232500D01*
X85800Y236250D02*X87300D01*
X94500Y238500D02*Y232500D01*
X93750D02*X94500Y233250D01*
X92250Y232500D02*X93750D01*
X91500Y233250D02*X92250Y232500D01*
X91500Y234750D02*Y233250D01*
Y234750D02*X92250Y235500D01*
X93750D01*
X94500Y234750D01*
X97050D02*Y232500D01*
Y234750D02*X97800Y235500D01*
X99300D01*
X96300D02*X97050Y234750D01*
G54D71*X101100Y237000D02*Y236850D01*
G54D70*Y234750D02*Y232500D01*
X102600Y238500D02*Y233250D01*
X103350Y232500D01*
X104850Y238500D02*Y233250D01*
X105600Y232500D01*
X110550D02*X112800D01*
X113550Y233250D01*
X112800Y234000D02*X113550Y233250D01*
X110550Y234000D02*X112800D01*
X109800Y234750D02*X110550Y234000D01*
X109800Y234750D02*X110550Y235500D01*
X112800D01*
X113550Y234750D01*
X109800Y233250D02*X110550Y232500D01*
G54D71*X115350Y237000D02*Y236850D01*
G54D70*Y234750D02*Y232500D01*
X116850Y235500D02*X119850D01*
X116850Y232500D02*X119850Y235500D01*
X116850Y232500D02*X119850D01*
X122400D02*X124650D01*
X121650Y233250D02*X122400Y232500D01*
X121650Y234750D02*Y233250D01*
Y234750D02*X122400Y235500D01*
X123900D01*
X124650Y234750D01*
X121650Y234000D02*X124650D01*
Y234750D02*Y234000D01*
X127200Y232500D02*X129450D01*
X130200Y233250D01*
X129450Y234000D02*X130200Y233250D01*
X127200Y234000D02*X129450D01*
X126450Y234750D02*X127200Y234000D01*
X126450Y234750D02*X127200Y235500D01*
X129450D01*
X130200Y234750D01*
X126450Y233250D02*X127200Y232500D01*
X134700Y235500D02*Y233250D01*
X135450Y232500D01*
X136950D01*
X137700Y233250D01*
Y235500D02*Y233250D01*
X140250Y232500D02*X142500D01*
X143250Y233250D01*
X142500Y234000D02*X143250Y233250D01*
X140250Y234000D02*X142500D01*
X139500Y234750D02*X140250Y234000D01*
X139500Y234750D02*X140250Y235500D01*
X142500D01*
X143250Y234750D01*
X139500Y233250D02*X140250Y232500D01*
X145800D02*X148050D01*
X145050Y233250D02*X145800Y232500D01*
X145050Y234750D02*Y233250D01*
Y234750D02*X145800Y235500D01*
X147300D01*
X148050Y234750D01*
X145050Y234000D02*X148050D01*
Y234750D02*Y234000D01*
X152850Y238500D02*Y232500D01*
X152100D02*X152850Y233250D01*
X150600Y232500D02*X152100D01*
X149850Y233250D02*X150600Y232500D01*
X149850Y234750D02*Y233250D01*
Y234750D02*X150600Y235500D01*
X152100D01*
X152850Y234750D01*
G54D71*X157350Y237000D02*Y236850D01*
G54D70*Y234750D02*Y232500D01*
X159600Y234750D02*Y232500D01*
Y234750D02*X160350Y235500D01*
X161100D01*
X161850Y234750D01*
Y232500D01*
X158850Y235500D02*X159600Y234750D01*
X167100Y238500D02*Y233250D01*
X167850Y232500D01*
X166350Y236250D02*X167850D01*
X169350Y238500D02*Y232500D01*
Y234750D02*X170100Y235500D01*
X171600D01*
X172350Y234750D01*
Y232500D01*
G54D71*X174150Y237000D02*Y236850D01*
G54D70*Y234750D02*Y232500D01*
X176400D02*X178650D01*
X179400Y233250D01*
X178650Y234000D02*X179400Y233250D01*
X176400Y234000D02*X178650D01*
X175650Y234750D02*X176400Y234000D01*
X175650Y234750D02*X176400Y235500D01*
X178650D01*
X179400Y234750D01*
X175650Y233250D02*X176400Y232500D01*
X183900Y238500D02*Y233250D01*
X184650Y232500D01*
X188400Y235500D02*X189150Y234750D01*
X186900Y235500D02*X188400D01*
X186150Y234750D02*X186900Y235500D01*
X186150Y234750D02*Y233250D01*
X186900Y232500D01*
X189150Y235500D02*Y233250D01*
X189900Y232500D01*
X186900D02*X188400D01*
X189150Y233250D01*
X191700Y235500D02*Y233250D01*
X192450Y232500D01*
X194700Y235500D02*Y231000D01*
X193950Y230250D02*X194700Y231000D01*
X192450Y230250D02*X193950D01*
X191700Y231000D02*X192450Y230250D01*
Y232500D02*X193950D01*
X194700Y233250D01*
X196500Y234750D02*Y233250D01*
Y234750D02*X197250Y235500D01*
X198750D01*
X199500Y234750D01*
Y233250D01*
X198750Y232500D02*X199500Y233250D01*
X197250Y232500D02*X198750D01*
X196500Y233250D02*X197250Y232500D01*
X201300Y235500D02*Y233250D01*
X202050Y232500D01*
X203550D01*
X204300Y233250D01*
Y235500D02*Y233250D01*
X206850Y238500D02*Y233250D01*
X207600Y232500D01*
X206100Y236250D02*X207600D01*
X209100Y231000D02*X210600Y232500D01*
X215850D02*X218850Y238500D01*
X215100D02*X218850D01*
X220650Y237750D02*X221400Y238500D01*
X222900D01*
X223650Y237750D01*
X222900Y232500D02*X223650Y233250D01*
X221400Y232500D02*X222900D01*
X220650Y233250D02*X221400Y232500D01*
Y235800D02*X222900D01*
X223650Y237750D02*Y236550D01*
Y235050D02*Y233250D01*
Y235050D02*X222900Y235800D01*
X223650Y236550D02*X222900Y235800D01*
X228150Y238500D02*Y232500D01*
Y234750D02*X228900Y235500D01*
X230400D01*
X231150Y234750D01*
Y232500D01*
X232950Y234750D02*Y233250D01*
Y234750D02*X233700Y235500D01*
X235200D01*
X235950Y234750D01*
Y233250D01*
X235200Y232500D02*X235950Y233250D01*
X233700Y232500D02*X235200D01*
X232950Y233250D02*X233700Y232500D01*
X237750Y238500D02*Y233250D01*
X238500Y232500D01*
X240750D02*X243000D01*
X240000Y233250D02*X240750Y232500D01*
X240000Y234750D02*Y233250D01*
Y234750D02*X240750Y235500D01*
X242250D01*
X243000Y234750D01*
X240000Y234000D02*X243000D01*
Y234750D02*Y234000D01*
X245550Y232500D02*X247800D01*
X248550Y233250D01*
X247800Y234000D02*X248550Y233250D01*
X245550Y234000D02*X247800D01*
X244800Y234750D02*X245550Y234000D01*
X244800Y234750D02*X245550Y235500D01*
X247800D01*
X248550Y234750D01*
X244800Y233250D02*X245550Y232500D01*
X253800Y238500D02*Y233250D01*
X254550Y232500D01*
X253050Y236250D02*X254550D01*
X256050Y234750D02*Y233250D01*
Y234750D02*X256800Y235500D01*
X258300D01*
X259050Y234750D01*
Y233250D01*
X258300Y232500D02*X259050Y233250D01*
X256800Y232500D02*X258300D01*
X256050Y233250D02*X256800Y232500D01*
X261600Y238500D02*Y233250D01*
X262350Y232500D01*
X260850Y236250D02*X262350D01*
X266100Y235500D02*X266850Y234750D01*
X264600Y235500D02*X266100D01*
X263850Y234750D02*X264600Y235500D01*
X263850Y234750D02*Y233250D01*
X264600Y232500D01*
X266850Y235500D02*Y233250D01*
X267600Y232500D01*
X264600D02*X266100D01*
X266850Y233250D01*
X269400Y238500D02*Y233250D01*
X270150Y232500D01*
G54D72*X0Y0D02*Y150000D01*
X200000Y0D02*X0D01*
X200000Y150000D02*X0D01*
X200000D02*Y0D01*
G54D70*X13675Y-9500D02*X16675D01*
X17425Y-8750D01*
Y-6950D02*Y-8750D01*
X16675Y-6200D02*X17425Y-6950D01*
X14425Y-6200D02*X16675D01*
X14425Y-3500D02*Y-9500D01*
X13675Y-3500D02*X16675D01*
X17425Y-4250D01*
Y-5450D01*
X16675Y-6200D02*X17425Y-5450D01*
X19225Y-7250D02*Y-8750D01*
Y-7250D02*X19975Y-6500D01*
X21475D01*
X22225Y-7250D01*
Y-8750D01*
X21475Y-9500D02*X22225Y-8750D01*
X19975Y-9500D02*X21475D01*
X19225Y-8750D02*X19975Y-9500D01*
X26275Y-6500D02*X27025Y-7250D01*
X24775Y-6500D02*X26275D01*
X24025Y-7250D02*X24775Y-6500D01*
X24025Y-7250D02*Y-8750D01*
X24775Y-9500D01*
X27025Y-6500D02*Y-8750D01*
X27775Y-9500D01*
X24775D02*X26275D01*
X27025Y-8750D01*
X30325Y-7250D02*Y-9500D01*
Y-7250D02*X31075Y-6500D01*
X32575D01*
X29575D02*X30325Y-7250D01*
X37375Y-3500D02*Y-9500D01*
X36625D02*X37375Y-8750D01*
X35125Y-9500D02*X36625D01*
X34375Y-8750D02*X35125Y-9500D01*
X34375Y-7250D02*Y-8750D01*
Y-7250D02*X35125Y-6500D01*
X36625D01*
X37375Y-7250D01*
X41875D02*Y-8750D01*
Y-7250D02*X42625Y-6500D01*
X44125D01*
X44875Y-7250D01*
Y-8750D01*
X44125Y-9500D02*X44875Y-8750D01*
X42625Y-9500D02*X44125D01*
X41875Y-8750D02*X42625Y-9500D01*
X46675Y-6500D02*Y-8750D01*
X47425Y-9500D01*
X48925D01*
X49675Y-8750D01*
Y-6500D02*Y-8750D01*
X52225Y-3500D02*Y-8750D01*
X52975Y-9500D01*
X51475Y-5750D02*X52975D01*
X54475Y-3500D02*Y-8750D01*
X55225Y-9500D01*
G54D71*X56725Y-5000D02*Y-5150D01*
G54D70*Y-7250D02*Y-9500D01*
X58975Y-7250D02*Y-9500D01*
Y-7250D02*X59725Y-6500D01*
X60475D01*
X61225Y-7250D01*
Y-9500D01*
X58225Y-6500D02*X58975Y-7250D01*
X63775Y-9500D02*X66025D01*
X63025Y-8750D02*X63775Y-9500D01*
X63025Y-7250D02*Y-8750D01*
Y-7250D02*X63775Y-6500D01*
X65275D01*
X66025Y-7250D01*
X63025Y-8000D02*X66025D01*
Y-7250D02*Y-8000D01*
G54D71*X70525Y-5000D02*Y-5150D01*
G54D70*Y-7250D02*Y-9500D01*
X72775D02*X75025D01*
X75775Y-8750D01*
X75025Y-8000D02*X75775Y-8750D01*
X72775Y-8000D02*X75025D01*
X72025Y-7250D02*X72775Y-8000D01*
X72025Y-7250D02*X72775Y-6500D01*
X75025D01*
X75775Y-7250D01*
X72025Y-8750D02*X72775Y-9500D01*
X81025Y-3500D02*Y-8750D01*
X81775Y-9500D01*
X80275Y-5750D02*X81775D01*
X83275Y-3500D02*Y-9500D01*
Y-7250D02*X84025Y-6500D01*
X85525D01*
X86275Y-7250D01*
Y-9500D01*
X88825D02*X91075D01*
X88075Y-8750D02*X88825Y-9500D01*
X88075Y-7250D02*Y-8750D01*
Y-7250D02*X88825Y-6500D01*
X90325D01*
X91075Y-7250D01*
X88075Y-8000D02*X91075D01*
Y-7250D02*Y-8000D01*
X96325Y-6500D02*X98575D01*
X95575Y-7250D02*X96325Y-6500D01*
X95575Y-7250D02*Y-8750D01*
X96325Y-9500D01*
X98575D01*
X101125D02*X103375D01*
X100375Y-8750D02*X101125Y-9500D01*
X100375Y-7250D02*Y-8750D01*
Y-7250D02*X101125Y-6500D01*
X102625D01*
X103375Y-7250D01*
X100375Y-8000D02*X103375D01*
Y-7250D02*Y-8000D01*
X105925Y-7250D02*Y-9500D01*
Y-7250D02*X106675Y-6500D01*
X107425D01*
X108175Y-7250D01*
Y-9500D01*
X105175Y-6500D02*X105925Y-7250D01*
X110725Y-3500D02*Y-8750D01*
X111475Y-9500D01*
X109975Y-5750D02*X111475D01*
X113725Y-9500D02*X115975D01*
X112975Y-8750D02*X113725Y-9500D01*
X112975Y-7250D02*Y-8750D01*
Y-7250D02*X113725Y-6500D01*
X115225D01*
X115975Y-7250D01*
X112975Y-8000D02*X115975D01*
Y-7250D02*Y-8000D01*
X118525Y-7250D02*Y-9500D01*
Y-7250D02*X119275Y-6500D01*
X120775D01*
X117775D02*X118525Y-7250D01*
X122575Y-3500D02*Y-8750D01*
X123325Y-9500D01*
G54D71*X124825Y-5000D02*Y-5150D01*
G54D70*Y-7250D02*Y-9500D01*
X127075Y-7250D02*Y-9500D01*
Y-7250D02*X127825Y-6500D01*
X128575D01*
X129325Y-7250D01*
Y-9500D01*
X126325Y-6500D02*X127075Y-7250D01*
X131875Y-9500D02*X134125D01*
X131125Y-8750D02*X131875Y-9500D01*
X131125Y-7250D02*Y-8750D01*
Y-7250D02*X131875Y-6500D01*
X133375D01*
X134125Y-7250D01*
X131125Y-8000D02*X134125D01*
Y-7250D02*Y-8000D01*
X138625Y-7250D02*Y-8750D01*
Y-7250D02*X139375Y-6500D01*
X140875D01*
X141625Y-7250D01*
Y-8750D01*
X140875Y-9500D02*X141625Y-8750D01*
X139375Y-9500D02*X140875D01*
X138625Y-8750D02*X139375Y-9500D01*
X144175Y-4250D02*Y-9500D01*
Y-4250D02*X144925Y-3500D01*
X145675D01*
X143425Y-6500D02*X144925D01*
X150625Y-3500D02*Y-8750D01*
X151375Y-9500D01*
X149875Y-5750D02*X151375D01*
X152875Y-3500D02*Y-9500D01*
Y-7250D02*X153625Y-6500D01*
X155125D01*
X155875Y-7250D01*
Y-9500D01*
G54D71*X157675Y-5000D02*Y-5150D01*
G54D70*Y-7250D02*Y-9500D01*
X159925D02*X162175D01*
X162925Y-8750D01*
X162175Y-8000D02*X162925Y-8750D01*
X159925Y-8000D02*X162175D01*
X159175Y-7250D02*X159925Y-8000D01*
X159175Y-7250D02*X159925Y-6500D01*
X162175D01*
X162925Y-7250D01*
X159175Y-8750D02*X159925Y-9500D01*
X168175Y-7250D02*Y-11750D01*
X167425Y-6500D02*X168175Y-7250D01*
X168925Y-6500D01*
X170425D01*
X171175Y-7250D01*
Y-8750D01*
X170425Y-9500D02*X171175Y-8750D01*
X168925Y-9500D02*X170425D01*
X168175Y-8750D02*X168925Y-9500D01*
X175225Y-6500D02*X175975Y-7250D01*
X173725Y-6500D02*X175225D01*
X172975Y-7250D02*X173725Y-6500D01*
X172975Y-7250D02*Y-8750D01*
X173725Y-9500D01*
X175975Y-6500D02*Y-8750D01*
X176725Y-9500D01*
X173725D02*X175225D01*
X175975Y-8750D01*
X179275Y-3500D02*Y-8750D01*
X180025Y-9500D01*
X178525Y-5750D02*X180025D01*
X181525Y-3500D02*Y-9500D01*
Y-7250D02*X182275Y-6500D01*
X183775D01*
X184525Y-7250D01*
Y-9500D01*
X200750Y178500D02*Y172500D01*
X202700Y178500D02*X203750Y177450D01*
Y173550D01*
X202700Y172500D02*X203750Y173550D01*
X200000Y172500D02*X202700D01*
X200000Y178500D02*X202700D01*
X207800Y175500D02*X208550Y174750D01*
X206300Y175500D02*X207800D01*
X205550Y174750D02*X206300Y175500D01*
X205550Y174750D02*Y173250D01*
X206300Y172500D01*
X208550Y175500D02*Y173250D01*
X209300Y172500D01*
X206300D02*X207800D01*
X208550Y173250D01*
X211850Y178500D02*Y173250D01*
X212600Y172500D01*
X211100Y176250D02*X212600D01*
X214850Y172500D02*X217100D01*
X214100Y173250D02*X214850Y172500D01*
X214100Y174750D02*Y173250D01*
Y174750D02*X214850Y175500D01*
X216350D01*
X217100Y174750D01*
X214100Y174000D02*X217100D01*
Y174750D02*Y174000D01*
X218900Y176250D02*X219650D01*
X218900Y174750D02*X219650D01*
X227150Y178500D02*X227900Y177750D01*
X224900Y178500D02*X227150D01*
X224150Y177750D02*X224900Y178500D01*
X224150Y177750D02*Y176250D01*
X224900Y175500D01*
X227150D01*
X227900Y174750D01*
Y173250D01*
X227150Y172500D02*X227900Y173250D01*
X224900Y172500D02*X227150D01*
X224150Y173250D02*X224900Y172500D01*
X229700Y175500D02*Y173250D01*
X230450Y172500D01*
X231950D01*
X232700Y173250D01*
Y175500D02*Y173250D01*
X235250Y174750D02*Y172500D01*
Y174750D02*X236000Y175500D01*
X236750D01*
X237500Y174750D01*
Y172500D01*
X234500Y175500D02*X235250Y174750D01*
X242000Y177750D02*X242750Y178500D01*
X244250D01*
X245000Y177750D01*
X244250Y172500D02*X245000Y173250D01*
X242750Y172500D02*X244250D01*
X242000Y173250D02*X242750Y172500D01*
Y175800D02*X244250D01*
X245000Y177750D02*Y176550D01*
Y175050D02*Y173250D01*
Y175050D02*X244250Y175800D01*
X245000Y176550D02*X244250Y175800D01*
X246800Y173250D02*X247550Y172500D01*
X246800Y177750D02*Y173250D01*
Y177750D02*X247550Y178500D01*
X249050D01*
X249800Y177750D01*
Y173250D01*
X249050Y172500D02*X249800Y173250D01*
X247550Y172500D02*X249050D01*
X246800Y174000D02*X249800Y177000D01*
X255050Y178500D02*Y172500D01*
X257000Y178500D02*X258050Y177450D01*
Y173550D01*
X257000Y172500D02*X258050Y173550D01*
X254300Y172500D02*X257000D01*
X254300Y178500D02*X257000D01*
X260600Y172500D02*X262850D01*
X259850Y173250D02*X260600Y172500D01*
X259850Y174750D02*Y173250D01*
Y174750D02*X260600Y175500D01*
X262100D01*
X262850Y174750D01*
X259850Y174000D02*X262850D01*
Y174750D02*Y174000D01*
X265400Y175500D02*X267650D01*
X264650Y174750D02*X265400Y175500D01*
X264650Y174750D02*Y173250D01*
X265400Y172500D01*
X267650D01*
X272150Y177750D02*X272900Y178500D01*
X275150D01*
X275900Y177750D01*
Y176250D01*
X272150Y172500D02*X275900Y176250D01*
X272150Y172500D02*X275900D01*
X277700Y173250D02*X278450Y172500D01*
X277700Y177750D02*Y173250D01*
Y177750D02*X278450Y178500D01*
X279950D01*
X280700Y177750D01*
Y173250D01*
X279950Y172500D02*X280700Y173250D01*
X278450Y172500D02*X279950D01*
X277700Y174000D02*X280700Y177000D01*
X282500Y177300D02*X283700Y178500D01*
Y172500D01*
X282500D02*X284750D01*
X286550Y173250D02*X287300Y172500D01*
X286550Y174450D02*Y173250D01*
Y174450D02*X287600Y175500D01*
X288500D01*
X289550Y174450D01*
Y173250D01*
X288800Y172500D02*X289550Y173250D01*
X287300Y172500D02*X288800D01*
X286550Y176550D02*X287600Y175500D01*
X286550Y177750D02*Y176550D01*
Y177750D02*X287300Y178500D01*
X288800D01*
X289550Y177750D01*
Y176550D01*
X288500Y175500D02*X289550Y176550D01*
X294050Y173250D02*X294800Y172500D01*
X294050Y177750D02*Y173250D01*
Y177750D02*X294800Y178500D01*
X296300D01*
X297050Y177750D01*
Y173250D01*
X296300Y172500D02*X297050Y173250D01*
X294800Y172500D02*X296300D01*
X294050Y174000D02*X297050Y177000D01*
X299600Y172500D02*X302600Y178500D01*
X298850D02*X302600D01*
X304400Y176250D02*X305150D01*
X304400Y174750D02*X305150D01*
X306950D02*X309950Y178500D01*
X306950Y174750D02*X310700D01*
X309950Y178500D02*Y172500D01*
X312500Y174750D02*X315500Y178500D01*
X312500Y174750D02*X316250D01*
X315500Y178500D02*Y172500D01*
X318050Y176250D02*X318800D01*
X318050Y174750D02*X318800D01*
X320600Y177300D02*X321800Y178500D01*
Y172500D01*
X320600D02*X322850D01*
X324650Y173250D02*X325400Y172500D01*
X324650Y177750D02*Y173250D01*
Y177750D02*X325400Y178500D01*
X326900D01*
X327650Y177750D01*
Y173250D01*
X326900Y172500D02*X327650Y173250D01*
X325400Y172500D02*X326900D01*
X324650Y174000D02*X327650Y177000D01*
X332900Y178500D02*Y172500D01*
X332150Y178500D02*X335150D01*
X335900Y177750D01*
Y176250D01*
X335150Y175500D02*X335900Y176250D01*
X332900Y175500D02*X335150D01*
X337700Y178500D02*Y172500D01*
Y178500D02*X339950Y175500D01*
X342200Y178500D01*
Y172500D01*
X349700Y178500D02*X350450Y177750D01*
X347450Y178500D02*X349700D01*
X346700Y177750D02*X347450Y178500D01*
X346700Y177750D02*Y173250D01*
X347450Y172500D01*
X349700D01*
X350450Y173250D01*
Y174750D02*Y173250D01*
X349700Y175500D02*X350450Y174750D01*
X348200Y175500D02*X349700D01*
X352250Y178500D02*Y172500D01*
Y178500D02*X354500Y175500D01*
X356750Y178500D01*
Y172500D01*
X358550Y178500D02*X361550D01*
X360050D02*Y172500D01*
X366050Y178500D02*Y173250D01*
X366800Y172500D01*
X368300D01*
X369050Y173250D01*
Y178500D02*Y173250D01*
X370850Y178500D02*X373850D01*
X372350D02*Y172500D01*
X376700D02*X378650D01*
X375650Y173550D02*X376700Y172500D01*
X375650Y177450D02*Y173550D01*
Y177450D02*X376700Y178500D01*
X378650D01*
X200000Y192000D02*Y187500D01*
Y192000D02*X201050Y193500D01*
X202700D01*
X203750Y192000D01*
Y187500D01*
X200000Y190500D02*X203750D01*
X205550D02*Y188250D01*
X206300Y187500D01*
X207800D01*
X208550Y188250D01*
Y190500D02*Y188250D01*
X211100Y193500D02*Y188250D01*
X211850Y187500D01*
X210350Y191250D02*X211850D01*
X213350Y193500D02*Y187500D01*
Y189750D02*X214100Y190500D01*
X215600D01*
X216350Y189750D01*
Y187500D01*
X218150Y189750D02*Y188250D01*
Y189750D02*X218900Y190500D01*
X220400D01*
X221150Y189750D01*
Y188250D01*
X220400Y187500D02*X221150Y188250D01*
X218900Y187500D02*X220400D01*
X218150Y188250D02*X218900Y187500D01*
X223700Y189750D02*Y187500D01*
Y189750D02*X224450Y190500D01*
X225950D01*
X222950D02*X223700Y189750D01*
X227750Y191250D02*X228500D01*
X227750Y189750D02*X228500D01*
X233000Y193500D02*Y187500D01*
Y193500D02*X235250Y190500D01*
X237500Y193500D01*
Y187500D01*
G54D71*X239300Y192000D02*Y191850D01*
G54D70*Y189750D02*Y187500D01*
X241550Y190500D02*X243800D01*
X240800Y189750D02*X241550Y190500D01*
X240800Y189750D02*Y188250D01*
X241550Y187500D01*
X243800D01*
X245600Y193500D02*Y187500D01*
Y189750D02*X246350Y190500D01*
X247850D01*
X248600Y189750D01*
Y187500D01*
X252650Y190500D02*X253400Y189750D01*
X251150Y190500D02*X252650D01*
X250400Y189750D02*X251150Y190500D01*
X250400Y189750D02*Y188250D01*
X251150Y187500D01*
X253400Y190500D02*Y188250D01*
X254150Y187500D01*
X251150D02*X252650D01*
X253400Y188250D01*
X256700Y187500D02*X258950D01*
X255950Y188250D02*X256700Y187500D01*
X255950Y189750D02*Y188250D01*
Y189750D02*X256700Y190500D01*
X258200D01*
X258950Y189750D01*
X255950Y189000D02*X258950D01*
Y189750D02*Y189000D01*
X260750Y193500D02*Y188250D01*
X261500Y187500D01*
X266450Y193500D02*Y187500D01*
X265700Y193500D02*X268700D01*
X269450Y192750D01*
Y191250D01*
X268700Y190500D02*X269450Y191250D01*
X266450Y190500D02*X268700D01*
X272000Y187500D02*X274250D01*
X271250Y188250D02*X272000Y187500D01*
X271250Y189750D02*Y188250D01*
Y189750D02*X272000Y190500D01*
X273500D01*
X274250Y189750D01*
X271250Y189000D02*X274250D01*
Y189750D02*Y189000D01*
X276800Y193500D02*Y188250D01*
X277550Y187500D01*
X276050Y191250D02*X277550D01*
X279800Y187500D02*X282050D01*
X279050Y188250D02*X279800Y187500D01*
X279050Y189750D02*Y188250D01*
Y189750D02*X279800Y190500D01*
X281300D01*
X282050Y189750D01*
X279050Y189000D02*X282050D01*
Y189750D02*Y189000D01*
X284600Y189750D02*Y187500D01*
Y189750D02*X285350Y190500D01*
X286850D01*
X283850D02*X284600Y189750D01*
X289400Y187500D02*X291650D01*
X292400Y188250D01*
X291650Y189000D02*X292400Y188250D01*
X289400Y189000D02*X291650D01*
X288650Y189750D02*X289400Y189000D01*
X288650Y189750D02*X289400Y190500D01*
X291650D01*
X292400Y189750D01*
X288650Y188250D02*X289400Y187500D01*
X294950D02*X297200D01*
X294200Y188250D02*X294950Y187500D01*
X294200Y189750D02*Y188250D01*
Y189750D02*X294950Y190500D01*
X296450D01*
X297200Y189750D01*
X294200Y189000D02*X297200D01*
Y189750D02*Y189000D01*
X299750Y189750D02*Y187500D01*
Y189750D02*X300500Y190500D01*
X301250D01*
X302000Y189750D01*
Y187500D01*
X299000Y190500D02*X299750Y189750D01*
X200000Y208500D02*X203000D01*
X201500D02*Y202500D01*
G54D71*X204800Y207000D02*Y206850D01*
G54D70*Y204750D02*Y202500D01*
X207050Y208500D02*Y203250D01*
X207800Y202500D01*
X206300Y206250D02*X207800D01*
X209300Y208500D02*Y203250D01*
X210050Y202500D01*
X212300D02*X214550D01*
X211550Y203250D02*X212300Y202500D01*
X211550Y204750D02*Y203250D01*
Y204750D02*X212300Y205500D01*
X213800D01*
X214550Y204750D01*
X211550Y204000D02*X214550D01*
Y204750D02*Y204000D01*
X216350Y206250D02*X217100D01*
X216350Y204750D02*X217100D01*
X221600Y203250D02*X222350Y202500D01*
X221600Y207750D02*X222350Y208500D01*
X221600Y207750D02*Y203250D01*
X224150Y205500D02*Y203250D01*
X224900Y202500D01*
X226400D01*
X227150Y203250D01*
Y205500D02*Y203250D01*
X229700Y204750D02*Y202500D01*
Y204750D02*X230450Y205500D01*
X231200D01*
X231950Y204750D01*
Y202500D01*
X228950Y205500D02*X229700Y204750D01*
X233750Y208500D02*Y202500D01*
Y204750D02*X236000Y202500D01*
X233750Y204750D02*X235250Y206250D01*
X238550Y204750D02*Y202500D01*
Y204750D02*X239300Y205500D01*
X240050D01*
X240800Y204750D01*
Y202500D01*
X237800Y205500D02*X238550Y204750D01*
X242600D02*Y203250D01*
Y204750D02*X243350Y205500D01*
X244850D01*
X245600Y204750D01*
Y203250D01*
X244850Y202500D02*X245600Y203250D01*
X243350Y202500D02*X244850D01*
X242600Y203250D02*X243350Y202500D01*
X247400Y205500D02*Y203250D01*
X248150Y202500D01*
X248900D01*
X249650Y203250D01*
Y205500D02*Y203250D01*
X250400Y202500D01*
X251150D01*
X251900Y203250D01*
Y205500D02*Y203250D01*
X254450Y204750D02*Y202500D01*
Y204750D02*X255200Y205500D01*
X255950D01*
X256700Y204750D01*
Y202500D01*
X253700Y205500D02*X254450Y204750D01*
X258500Y208500D02*X259250Y207750D01*
Y203250D01*
X258500Y202500D02*X259250Y203250D01*
X263750Y205500D02*X266750D01*
X271250Y208500D02*Y202500D01*
Y208500D02*X274250D01*
X271250Y205800D02*X273500D01*
X278300Y205500D02*X279050Y204750D01*
X276800Y205500D02*X278300D01*
X276050Y204750D02*X276800Y205500D01*
X276050Y204750D02*Y203250D01*
X276800Y202500D01*
X279050Y205500D02*Y203250D01*
X279800Y202500D01*
X276800D02*X278300D01*
X279050Y203250D01*
X281600Y208500D02*Y202500D01*
Y203250D02*X282350Y202500D01*
X283850D01*
X284600Y203250D01*
Y204750D02*Y203250D01*
X283850Y205500D02*X284600Y204750D01*
X282350Y205500D02*X283850D01*
X281600Y204750D02*X282350Y205500D01*
X287150Y204750D02*Y202500D01*
Y204750D02*X287900Y205500D01*
X289400D01*
X286400D02*X287150Y204750D01*
G54D71*X291200Y207000D02*Y206850D01*
G54D70*Y204750D02*Y202500D01*
X293450Y205500D02*X295700D01*
X292700Y204750D02*X293450Y205500D01*
X292700Y204750D02*Y203250D01*
X293450Y202500D01*
X295700D01*
X299750Y205500D02*X300500Y204750D01*
X298250Y205500D02*X299750D01*
X297500Y204750D02*X298250Y205500D01*
X297500Y204750D02*Y203250D01*
X298250Y202500D01*
X300500Y205500D02*Y203250D01*
X301250Y202500D01*
X298250D02*X299750D01*
X300500Y203250D01*
X303800Y208500D02*Y203250D01*
X304550Y202500D01*
X303050Y206250D02*X304550D01*
G54D71*X306050Y207000D02*Y206850D01*
G54D70*Y204750D02*Y202500D01*
X307550Y204750D02*Y203250D01*
Y204750D02*X308300Y205500D01*
X309800D01*
X310550Y204750D01*
Y203250D01*
X309800Y202500D02*X310550Y203250D01*
X308300Y202500D02*X309800D01*
X307550Y203250D02*X308300Y202500D01*
X313100Y204750D02*Y202500D01*
Y204750D02*X313850Y205500D01*
X314600D01*
X315350Y204750D01*
Y202500D01*
X312350Y205500D02*X313100Y204750D01*
X320600Y208500D02*Y202500D01*
X322550Y208500D02*X323600Y207450D01*
Y203550D01*
X322550Y202500D02*X323600Y203550D01*
X319850Y202500D02*X322550D01*
X319850Y208500D02*X322550D01*
X326150Y204750D02*Y202500D01*
Y204750D02*X326900Y205500D01*
X328400D01*
X325400D02*X326150Y204750D01*
X332450Y205500D02*X333200Y204750D01*
X330950Y205500D02*X332450D01*
X330200Y204750D02*X330950Y205500D01*
X330200Y204750D02*Y203250D01*
X330950Y202500D01*
X333200Y205500D02*Y203250D01*
X333950Y202500D01*
X330950D02*X332450D01*
X333200Y203250D01*
X335750Y205500D02*Y203250D01*
X336500Y202500D01*
X337250D01*
X338000Y203250D01*
Y205500D02*Y203250D01*
X338750Y202500D01*
X339500D01*
X340250Y203250D01*
Y205500D02*Y203250D01*
G54D71*X342050Y207000D02*Y206850D01*
G54D70*Y204750D02*Y202500D01*
X344300Y204750D02*Y202500D01*
Y204750D02*X345050Y205500D01*
X345800D01*
X346550Y204750D01*
Y202500D01*
X343550Y205500D02*X344300Y204750D01*
X350600Y205500D02*X351350Y204750D01*
X349100Y205500D02*X350600D01*
X348350Y204750D02*X349100Y205500D01*
X348350Y204750D02*Y203250D01*
X349100Y202500D01*
X350600D01*
X351350Y203250D01*
X348350Y201000D02*X349100Y200250D01*
X350600D01*
X351350Y201000D01*
Y205500D02*Y201000D01*
M02*
