G04 start of page 3 for group 1 idx 1 *
G04 Title: (unknown), bottom *
G04 Creator: pcb 20140316 *
G04 CreationDate: Sun 30 Dec 2018 07:44:10 PM GMT UTC *
G04 For: railfan *
G04 Format: Gerber/RS-274X *
G04 PCB-Dimensions (mil): 2000.00 1500.00 *
G04 PCB-Coordinate-Origin: lower left *
%MOIN*%
%FSLAX25Y25*%
%LNBOTTOM*%
%ADD39C,0.0360*%
%ADD38C,0.0910*%
%ADD37C,0.1285*%
%ADD36C,0.0120*%
%ADD35C,0.0260*%
%ADD34C,0.0660*%
%ADD33C,0.1570*%
%ADD32C,0.2937*%
%ADD31C,0.0100*%
%ADD30C,0.0001*%
G54D30*G36*
X133500Y148000D02*Y116500D01*
X109244D01*
X109131Y116631D01*
X108856Y116866D01*
X108547Y117056D01*
X108213Y117194D01*
X107861Y117279D01*
X107500Y117307D01*
X107328Y117294D01*
X106102Y118519D01*
X106064Y118564D01*
X105884Y118717D01*
X105683Y118841D01*
X105465Y118931D01*
X105235Y118986D01*
X105000Y119005D01*
X104941Y119000D01*
X85121D01*
X83102Y121019D01*
X83064Y121064D01*
X82884Y121217D01*
X82683Y121341D01*
X82465Y121431D01*
X82235Y121486D01*
X82235Y121486D01*
X82000Y121505D01*
X81941Y121500D01*
X65559D01*
X65500Y121505D01*
X65265Y121486D01*
X65035Y121431D01*
X64817Y121341D01*
X64616Y121217D01*
X64615Y121217D01*
X64436Y121064D01*
X64398Y121019D01*
X62379Y119000D01*
X59744D01*
X59631Y119131D01*
X59356Y119366D01*
X59047Y119556D01*
X58713Y119694D01*
X58361Y119779D01*
X58000Y119807D01*
X57639Y119779D01*
X57287Y119694D01*
X56953Y119556D01*
X56644Y119366D01*
X56369Y119131D01*
X56134Y118856D01*
X55944Y118547D01*
X55806Y118213D01*
X55721Y117861D01*
X55693Y117500D01*
X55721Y117139D01*
X55806Y116787D01*
X55925Y116500D01*
X33500D01*
Y148000D01*
X133500D01*
G37*
G36*
X135500D02*X178295D01*
X178138Y147962D01*
X175858Y147018D01*
X173753Y145728D01*
X171876Y144124D01*
X170272Y142247D01*
X168982Y140142D01*
X168038Y137862D01*
X167461Y135461D01*
X167268Y133000D01*
X167461Y130539D01*
X168038Y128138D01*
X168982Y125858D01*
X170272Y123753D01*
X171876Y121876D01*
X173753Y120272D01*
X175858Y118982D01*
X178138Y118038D01*
X180539Y117461D01*
X183000Y117268D01*
X185461Y117461D01*
X187862Y118038D01*
X190142Y118982D01*
X192247Y120272D01*
X194124Y121876D01*
X195728Y123753D01*
X197018Y125858D01*
X197962Y128138D01*
X198000Y128295D01*
Y109500D01*
X135500D01*
Y148000D01*
G37*
G36*
X160256Y10500D02*X151496D01*
Y33693D01*
X151500Y33693D01*
X151861Y33721D01*
X152213Y33806D01*
X152547Y33944D01*
X152856Y34134D01*
X153131Y34369D01*
X153366Y34644D01*
X153556Y34953D01*
X153694Y35287D01*
X153779Y35639D01*
X153800Y36000D01*
X153779Y36361D01*
X153694Y36713D01*
X153556Y37047D01*
X153366Y37356D01*
X153131Y37631D01*
X153000Y37744D01*
Y39256D01*
X153131Y39369D01*
X153366Y39644D01*
X153556Y39953D01*
X153694Y40287D01*
X153779Y40639D01*
X153800Y41000D01*
X153779Y41361D01*
X153694Y41713D01*
X153556Y42047D01*
X153366Y42356D01*
X153131Y42631D01*
X152856Y42866D01*
X152547Y43056D01*
X152213Y43194D01*
X151861Y43279D01*
X151500Y43307D01*
X151496Y43307D01*
Y115000D01*
X198000D01*
Y98000D01*
X182500D01*
Y47000D01*
X198000D01*
Y21705D01*
X197962Y21862D01*
X197018Y24142D01*
X195728Y26247D01*
X194124Y28124D01*
X192247Y29728D01*
X190142Y31018D01*
X187862Y31962D01*
X185461Y32539D01*
X183000Y32732D01*
X180539Y32539D01*
X178138Y31962D01*
X175858Y31018D01*
X173753Y29728D01*
X171876Y28124D01*
X170272Y26247D01*
X168982Y24142D01*
X168038Y21862D01*
X167461Y19461D01*
X167268Y17000D01*
X167461Y14539D01*
X168038Y12138D01*
X168982Y9858D01*
X170272Y7753D01*
X171876Y5876D01*
X173753Y4272D01*
X175858Y2982D01*
X178138Y2038D01*
X178295Y2000D01*
X151496D01*
Y4152D01*
X160256D01*
X160369Y4021D01*
X160644Y3785D01*
X160953Y3596D01*
X161287Y3458D01*
X161639Y3373D01*
X162000Y3345D01*
X162361Y3373D01*
X162713Y3458D01*
X163047Y3596D01*
X163356Y3785D01*
X163631Y4021D01*
X163866Y4296D01*
X164056Y4605D01*
X164194Y4939D01*
X164279Y5291D01*
X164300Y5652D01*
X164279Y6013D01*
X164194Y6365D01*
X164056Y6699D01*
X163866Y7008D01*
X163631Y7283D01*
X163581Y7326D01*
X163631Y7369D01*
X163866Y7644D01*
X164056Y7953D01*
X164194Y8287D01*
X164279Y8639D01*
X164300Y9000D01*
X164279Y9361D01*
X164194Y9713D01*
X164056Y10047D01*
X163866Y10356D01*
X163631Y10631D01*
X163356Y10866D01*
X163047Y11056D01*
X162713Y11194D01*
X162361Y11279D01*
X162000Y11307D01*
X161639Y11279D01*
X161287Y11194D01*
X160953Y11056D01*
X160644Y10866D01*
X160369Y10631D01*
X160256Y10500D01*
G37*
G36*
X151496Y2000D02*X107621D01*
X109773Y4152D01*
X151496D01*
Y2000D01*
G37*
G36*
Y10500D02*X111849D01*
Y42500D01*
X118441D01*
X118500Y42495D01*
X118735Y42514D01*
X118735Y42514D01*
X118965Y42569D01*
X119183Y42659D01*
X119384Y42783D01*
X119564Y42936D01*
X119602Y42981D01*
X120500Y43879D01*
Y40244D01*
X120369Y40131D01*
X120201Y39935D01*
X120194Y39963D01*
X120056Y40297D01*
X119866Y40606D01*
X119631Y40881D01*
X119356Y41116D01*
X119047Y41306D01*
X118713Y41444D01*
X118361Y41529D01*
X118000Y41557D01*
X117639Y41529D01*
X117287Y41444D01*
X116953Y41306D01*
X116644Y41116D01*
X116369Y40881D01*
X116134Y40606D01*
X115944Y40297D01*
X115806Y39963D01*
X115721Y39611D01*
X115693Y39250D01*
X115721Y38889D01*
X115806Y38537D01*
X115944Y38203D01*
X116134Y37894D01*
X116369Y37619D01*
X116496Y37510D01*
X116495Y37500D01*
X116514Y37265D01*
X116569Y37035D01*
X116659Y36817D01*
X116783Y36616D01*
X116936Y36436D01*
X116981Y36398D01*
X118398Y34981D01*
X118436Y34936D01*
X118616Y34783D01*
X118817Y34659D01*
X119035Y34569D01*
X119265Y34514D01*
X119500Y34495D01*
X119559Y34500D01*
X122941D01*
X123000Y34495D01*
X123235Y34514D01*
X123235Y34514D01*
X123465Y34569D01*
X123683Y34659D01*
X123884Y34783D01*
X124064Y34936D01*
X124102Y34981D01*
X125519Y36398D01*
X125564Y36436D01*
X125717Y36615D01*
X125717Y36616D01*
X125841Y36817D01*
X125931Y37035D01*
X125986Y37265D01*
X126005Y37500D01*
X126000Y37559D01*
Y48441D01*
X126005Y48500D01*
X125986Y48735D01*
X125986Y48735D01*
X125931Y48965D01*
X125841Y49183D01*
X125717Y49384D01*
X125564Y49564D01*
X125519Y49602D01*
X121500Y53621D01*
Y65941D01*
X121505Y66000D01*
X121486Y66235D01*
X121431Y66465D01*
X121341Y66683D01*
X121217Y66884D01*
X121064Y67064D01*
X121019Y67102D01*
X120500Y67621D01*
Y68256D01*
X120631Y68369D01*
X120866Y68644D01*
X121056Y68953D01*
X121194Y69287D01*
X121279Y69639D01*
X121300Y70000D01*
X121279Y70361D01*
X121194Y70713D01*
X121056Y71047D01*
X120866Y71356D01*
X120631Y71631D01*
X120356Y71866D01*
X120047Y72056D01*
X119713Y72194D01*
X119361Y72279D01*
X119000Y72307D01*
X118639Y72279D01*
X118287Y72194D01*
X117953Y72056D01*
X117644Y71866D01*
X117369Y71631D01*
X117134Y71356D01*
X116944Y71047D01*
X116806Y70713D01*
X116721Y70361D01*
X116693Y70000D01*
X116721Y69639D01*
X116806Y69287D01*
X116944Y68953D01*
X117134Y68644D01*
X117369Y68369D01*
X117500Y68256D01*
Y67307D01*
X117283Y67290D01*
X117279Y67361D01*
X117194Y67713D01*
X117056Y68047D01*
X116866Y68356D01*
X116631Y68631D01*
X116356Y68866D01*
X116047Y69056D01*
X115713Y69194D01*
X115361Y69279D01*
X115000Y69307D01*
X114639Y69279D01*
X114287Y69194D01*
X113953Y69056D01*
X113644Y68866D01*
X113369Y68631D01*
X113134Y68356D01*
X112944Y68047D01*
X112806Y67713D01*
X112721Y67361D01*
X112716Y67290D01*
X112500Y67307D01*
X112283Y67290D01*
X112279Y67361D01*
X112194Y67713D01*
X112056Y68047D01*
X111866Y68356D01*
X111849Y68377D01*
Y115000D01*
X151496D01*
Y43307D01*
X151139Y43279D01*
X150787Y43194D01*
X150453Y43056D01*
X150144Y42866D01*
X149869Y42631D01*
X149634Y42356D01*
X149444Y42047D01*
X149306Y41713D01*
X149221Y41361D01*
X149193Y41000D01*
X149221Y40639D01*
X149306Y40287D01*
X149444Y39953D01*
X149634Y39644D01*
X149869Y39369D01*
X150000Y39256D01*
Y37744D01*
X149869Y37631D01*
X149634Y37356D01*
X149444Y37047D01*
X149306Y36713D01*
X149221Y36361D01*
X149193Y36000D01*
X149221Y35639D01*
X149306Y35287D01*
X149444Y34953D01*
X149634Y34644D01*
X149869Y34369D01*
X150144Y34134D01*
X150453Y33944D01*
X150787Y33806D01*
X151139Y33721D01*
X151496Y33693D01*
Y10500D01*
G37*
G36*
X54666Y61749D02*X54687Y61591D01*
X54700Y61300D01*
X54687Y61009D01*
X54666Y60851D01*
Y61749D01*
G37*
G36*
X111849Y10500D02*X107559D01*
X107500Y10505D01*
X107265Y10486D01*
X107035Y10431D01*
X106817Y10341D01*
X106616Y10217D01*
X106615Y10217D01*
X106436Y10064D01*
X106398Y10019D01*
X105172Y8794D01*
X105000Y8807D01*
X104639Y8779D01*
X104287Y8694D01*
X103953Y8556D01*
X103644Y8366D01*
X103369Y8131D01*
X103134Y7856D01*
X102944Y7547D01*
X102806Y7213D01*
X102721Y6861D01*
X102693Y6500D01*
X102721Y6139D01*
X102806Y5787D01*
X102944Y5453D01*
X103134Y5144D01*
X103369Y4869D01*
X103644Y4634D01*
X103862Y4500D01*
X94121D01*
X92290Y6331D01*
X92300Y6500D01*
X92279Y6861D01*
X92194Y7213D01*
X92056Y7547D01*
X91866Y7856D01*
X91631Y8131D01*
X91356Y8366D01*
X91047Y8556D01*
X90713Y8694D01*
X90361Y8779D01*
X90000Y8807D01*
X89639Y8779D01*
X89287Y8694D01*
X88953Y8556D01*
X88644Y8366D01*
X88369Y8131D01*
X88134Y7856D01*
X87944Y7547D01*
X87806Y7213D01*
X87721Y6861D01*
X87693Y6500D01*
X87721Y6139D01*
X87806Y5787D01*
X87944Y5453D01*
X88134Y5144D01*
X88369Y4869D01*
X88644Y4634D01*
X88953Y4444D01*
X89287Y4306D01*
X89639Y4221D01*
X90000Y4193D01*
X90172Y4206D01*
X92379Y2000D01*
X54666D01*
Y59172D01*
X54768Y59325D01*
X54929Y59630D01*
X55062Y59948D01*
X55167Y60277D01*
X55243Y60613D01*
X55289Y60955D01*
X55304Y61300D01*
X55289Y61645D01*
X55243Y61987D01*
X55167Y62323D01*
X55062Y62652D01*
X54929Y62970D01*
X54768Y63275D01*
X54666Y63431D01*
Y68966D01*
X54886Y69324D01*
X55121Y69891D01*
X55264Y70488D01*
X55300Y71100D01*
X55264Y71712D01*
X55121Y72309D01*
X54886Y72876D01*
X54666Y73234D01*
Y76966D01*
X54886Y77324D01*
X55121Y77891D01*
X55264Y78488D01*
X55300Y79100D01*
X55264Y79712D01*
X55121Y80309D01*
X54886Y80876D01*
X54666Y81234D01*
Y86766D01*
X54886Y87124D01*
X55121Y87691D01*
X55264Y88288D01*
X55300Y88900D01*
X55264Y89512D01*
X55121Y90109D01*
X54886Y90676D01*
X54666Y91034D01*
Y115000D01*
X105193D01*
X105221Y114639D01*
X105306Y114287D01*
X105444Y113953D01*
X105634Y113644D01*
X105869Y113369D01*
X106144Y113134D01*
X106453Y112944D01*
X106787Y112806D01*
X107139Y112721D01*
X107500Y112693D01*
X107861Y112721D01*
X108213Y112806D01*
X108547Y112944D01*
X108856Y113134D01*
X109131Y113369D01*
X109366Y113644D01*
X109556Y113953D01*
X109694Y114287D01*
X109779Y114639D01*
X109800Y115000D01*
X111849D01*
Y68377D01*
X111631Y68631D01*
X111356Y68866D01*
X111047Y69056D01*
X110713Y69194D01*
X110361Y69279D01*
X110000Y69307D01*
X109639Y69279D01*
X109287Y69194D01*
X108953Y69056D01*
X108644Y68866D01*
X108369Y68631D01*
X108134Y68356D01*
X107944Y68047D01*
X107806Y67713D01*
X107721Y67361D01*
X107693Y67000D01*
X107721Y66639D01*
X107806Y66287D01*
X107944Y65953D01*
X108134Y65644D01*
X108369Y65369D01*
X108500Y65256D01*
Y51121D01*
X107172Y49794D01*
X107000Y49807D01*
X106639Y49779D01*
X106287Y49694D01*
X105953Y49556D01*
X105644Y49366D01*
X105369Y49131D01*
X105134Y48856D01*
X104944Y48547D01*
X104806Y48213D01*
X104721Y47861D01*
X104693Y47500D01*
X104721Y47139D01*
X104806Y46787D01*
X104944Y46453D01*
X105134Y46144D01*
X105369Y45869D01*
X105644Y45634D01*
X105871Y45494D01*
X105765Y45486D01*
X105535Y45431D01*
X105317Y45341D01*
X105116Y45217D01*
X105115Y45217D01*
X104936Y45064D01*
X104898Y45019D01*
X103379Y43500D01*
X101744D01*
X101631Y43631D01*
X101356Y43866D01*
X101047Y44056D01*
X100713Y44194D01*
X100361Y44279D01*
X100000Y44307D01*
X99639Y44279D01*
X99287Y44194D01*
X98953Y44056D01*
X98644Y43866D01*
X98369Y43631D01*
X98134Y43356D01*
X97944Y43047D01*
X97806Y42713D01*
X97721Y42361D01*
X97693Y42000D01*
X97721Y41639D01*
X97806Y41287D01*
X97944Y40953D01*
X98134Y40644D01*
X98369Y40369D01*
X98644Y40134D01*
X98953Y39944D01*
X99287Y39806D01*
X99639Y39721D01*
X100000Y39693D01*
X100361Y39721D01*
X100713Y39806D01*
X101047Y39944D01*
X101356Y40134D01*
X101631Y40369D01*
X101744Y40500D01*
X103941D01*
X104000Y40495D01*
X104235Y40514D01*
X104235Y40514D01*
X104465Y40569D01*
X104683Y40659D01*
X104884Y40783D01*
X105064Y40936D01*
X105102Y40981D01*
X106621Y42500D01*
X111849D01*
Y10500D01*
G37*
G36*
X54666Y91034D02*X54565Y91199D01*
X54166Y91666D01*
X53699Y92065D01*
X53176Y92386D01*
X52609Y92621D01*
X52012Y92764D01*
X51400Y92812D01*
X51394Y92812D01*
Y115000D01*
X54666D01*
Y91034D01*
G37*
G36*
Y81234D02*X54565Y81399D01*
X54166Y81866D01*
X53699Y82265D01*
X53176Y82586D01*
X52609Y82821D01*
X52012Y82964D01*
X51400Y83012D01*
X51394Y83012D01*
Y84988D01*
X51400Y84988D01*
X52012Y85036D01*
X52609Y85179D01*
X53176Y85414D01*
X53699Y85735D01*
X54166Y86134D01*
X54565Y86601D01*
X54666Y86766D01*
Y81234D01*
G37*
G36*
Y73234D02*X54565Y73399D01*
X54166Y73866D01*
X53699Y74265D01*
X53176Y74586D01*
X52609Y74821D01*
X52012Y74964D01*
X51400Y75012D01*
X51394Y75012D01*
Y75188D01*
X51400Y75188D01*
X52012Y75236D01*
X52609Y75379D01*
X53176Y75614D01*
X53699Y75935D01*
X54166Y76334D01*
X54565Y76801D01*
X54666Y76966D01*
Y73234D01*
G37*
G36*
Y2000D02*X51394D01*
Y57396D01*
X51400Y57396D01*
X51745Y57411D01*
X52087Y57457D01*
X52423Y57533D01*
X52752Y57638D01*
X53070Y57771D01*
X53375Y57932D01*
X53664Y58120D01*
X53701Y58150D01*
X53732Y58186D01*
X53758Y58227D01*
X53776Y58271D01*
X53788Y58317D01*
X53792Y58364D01*
X53789Y58412D01*
X53778Y58459D01*
X53760Y58503D01*
X53736Y58544D01*
X53705Y58580D01*
X53669Y58612D01*
X53629Y58637D01*
X53585Y58656D01*
X53538Y58667D01*
X53491Y58672D01*
X53443Y58668D01*
X53397Y58658D01*
X53353Y58640D01*
X53312Y58614D01*
X53069Y58453D01*
X52811Y58317D01*
X52543Y58204D01*
X52265Y58115D01*
X51980Y58051D01*
X51691Y58013D01*
X51400Y58000D01*
X51394Y58000D01*
Y64600D01*
X51400Y64600D01*
X51691Y64587D01*
X51980Y64549D01*
X52265Y64485D01*
X52543Y64396D01*
X52811Y64283D01*
X53069Y64147D01*
X53314Y63988D01*
X53354Y63963D01*
X53398Y63946D01*
X53444Y63935D01*
X53491Y63932D01*
X53538Y63936D01*
X53584Y63947D01*
X53627Y63966D01*
X53667Y63991D01*
X53703Y64022D01*
X53733Y64058D01*
X53757Y64099D01*
X53775Y64142D01*
X53786Y64188D01*
X53789Y64236D01*
X53785Y64283D01*
X53773Y64328D01*
X53755Y64372D01*
X53730Y64412D01*
X53699Y64447D01*
X53662Y64477D01*
X53375Y64668D01*
X53070Y64829D01*
X52752Y64962D01*
X52423Y65067D01*
X52087Y65143D01*
X51745Y65189D01*
X51400Y65204D01*
X51394Y65204D01*
Y67188D01*
X51400Y67188D01*
X52012Y67236D01*
X52609Y67379D01*
X53176Y67614D01*
X53699Y67935D01*
X54166Y68334D01*
X54565Y68801D01*
X54666Y68966D01*
Y63431D01*
X54580Y63564D01*
X54550Y63601D01*
X54514Y63632D01*
X54473Y63658D01*
X54429Y63676D01*
X54383Y63688D01*
X54336Y63692D01*
X54288Y63689D01*
X54241Y63678D01*
X54197Y63660D01*
X54156Y63636D01*
X54120Y63605D01*
X54088Y63569D01*
X54063Y63529D01*
X54044Y63485D01*
X54033Y63438D01*
X54028Y63391D01*
X54032Y63343D01*
X54042Y63297D01*
X54060Y63253D01*
X54086Y63212D01*
X54247Y62969D01*
X54383Y62711D01*
X54496Y62443D01*
X54585Y62165D01*
X54649Y61880D01*
X54666Y61749D01*
Y60851D01*
X54649Y60720D01*
X54585Y60435D01*
X54496Y60157D01*
X54383Y59889D01*
X54247Y59631D01*
X54088Y59386D01*
X54063Y59346D01*
X54046Y59302D01*
X54035Y59256D01*
X54032Y59209D01*
X54036Y59162D01*
X54047Y59116D01*
X54066Y59073D01*
X54091Y59033D01*
X54122Y58997D01*
X54158Y58967D01*
X54199Y58943D01*
X54242Y58925D01*
X54288Y58914D01*
X54335Y58911D01*
X54383Y58915D01*
X54428Y58927D01*
X54472Y58945D01*
X54512Y58970D01*
X54547Y59001D01*
X54577Y59038D01*
X54666Y59172D01*
Y2000D01*
G37*
G36*
X48134Y76966D02*X48235Y76801D01*
X48634Y76334D01*
X49101Y75935D01*
X49624Y75614D01*
X50191Y75379D01*
X50788Y75236D01*
X51394Y75188D01*
Y75012D01*
X50788Y74964D01*
X50191Y74821D01*
X49624Y74586D01*
X49101Y74265D01*
X48634Y73866D01*
X48235Y73399D01*
X48134Y73234D01*
Y76966D01*
G37*
G36*
Y86766D02*X48235Y86601D01*
X48634Y86134D01*
X49101Y85735D01*
X49624Y85414D01*
X50191Y85179D01*
X50788Y85036D01*
X51394Y84988D01*
Y83012D01*
X50788Y82964D01*
X50191Y82821D01*
X49624Y82586D01*
X49101Y82265D01*
X48634Y81866D01*
X48235Y81399D01*
X48134Y81234D01*
Y86766D01*
G37*
G36*
Y96093D02*X48610Y96870D01*
X49143Y98157D01*
X49468Y99511D01*
X49550Y100900D01*
X49468Y102289D01*
X49143Y103643D01*
X48610Y104930D01*
X48134Y105707D01*
Y115000D01*
X51394D01*
Y92812D01*
X50788Y92764D01*
X50191Y92621D01*
X49624Y92386D01*
X49101Y92065D01*
X48634Y91666D01*
X48235Y91199D01*
X48134Y91034D01*
Y96093D01*
G37*
G36*
X51394Y2000D02*X48134D01*
Y44393D01*
X48610Y45170D01*
X49143Y46457D01*
X49468Y47811D01*
X49550Y49200D01*
X49468Y50589D01*
X49143Y51943D01*
X48610Y53230D01*
X48134Y54007D01*
Y59169D01*
X48220Y59036D01*
X48250Y58999D01*
X48286Y58968D01*
X48327Y58942D01*
X48371Y58924D01*
X48417Y58912D01*
X48464Y58908D01*
X48512Y58911D01*
X48559Y58922D01*
X48603Y58940D01*
X48644Y58964D01*
X48680Y58995D01*
X48712Y59031D01*
X48737Y59071D01*
X48756Y59115D01*
X48767Y59162D01*
X48772Y59209D01*
X48768Y59257D01*
X48758Y59303D01*
X48740Y59347D01*
X48714Y59388D01*
X48553Y59631D01*
X48417Y59889D01*
X48304Y60157D01*
X48215Y60435D01*
X48151Y60720D01*
X48134Y60851D01*
Y61749D01*
X48151Y61880D01*
X48215Y62165D01*
X48304Y62443D01*
X48417Y62711D01*
X48553Y62969D01*
X48712Y63214D01*
X48737Y63254D01*
X48754Y63298D01*
X48765Y63344D01*
X48768Y63391D01*
X48764Y63438D01*
X48753Y63484D01*
X48734Y63527D01*
X48709Y63567D01*
X48678Y63603D01*
X48642Y63633D01*
X48601Y63657D01*
X48558Y63675D01*
X48512Y63686D01*
X48464Y63689D01*
X48417Y63685D01*
X48372Y63673D01*
X48328Y63655D01*
X48288Y63630D01*
X48253Y63599D01*
X48223Y63562D01*
X48134Y63428D01*
Y68966D01*
X48235Y68801D01*
X48634Y68334D01*
X49101Y67935D01*
X49624Y67614D01*
X50191Y67379D01*
X50788Y67236D01*
X51394Y67188D01*
Y65204D01*
X51055Y65189D01*
X50713Y65143D01*
X50377Y65067D01*
X50048Y64962D01*
X49730Y64829D01*
X49425Y64668D01*
X49136Y64480D01*
X49099Y64450D01*
X49068Y64414D01*
X49042Y64373D01*
X49024Y64329D01*
X49012Y64283D01*
X49008Y64236D01*
X49011Y64188D01*
X49022Y64141D01*
X49040Y64097D01*
X49064Y64056D01*
X49095Y64020D01*
X49131Y63988D01*
X49171Y63963D01*
X49215Y63944D01*
X49262Y63933D01*
X49309Y63928D01*
X49357Y63932D01*
X49403Y63942D01*
X49447Y63960D01*
X49488Y63986D01*
X49731Y64147D01*
X49989Y64283D01*
X50257Y64396D01*
X50535Y64485D01*
X50820Y64549D01*
X51109Y64587D01*
X51394Y64600D01*
Y58000D01*
X51109Y58013D01*
X50820Y58051D01*
X50535Y58115D01*
X50257Y58204D01*
X49989Y58317D01*
X49731Y58453D01*
X49486Y58612D01*
X49446Y58637D01*
X49402Y58654D01*
X49356Y58665D01*
X49309Y58668D01*
X49262Y58664D01*
X49216Y58653D01*
X49173Y58634D01*
X49133Y58609D01*
X49097Y58578D01*
X49067Y58542D01*
X49043Y58501D01*
X49025Y58458D01*
X49014Y58412D01*
X49011Y58365D01*
X49015Y58317D01*
X49027Y58272D01*
X49045Y58228D01*
X49070Y58188D01*
X49101Y58153D01*
X49138Y58123D01*
X49425Y57932D01*
X49730Y57771D01*
X50048Y57638D01*
X50377Y57533D01*
X50713Y57457D01*
X51055Y57411D01*
X51394Y57396D01*
Y2000D01*
G37*
G36*
X48134Y60851D02*X48113Y61009D01*
X48100Y61300D01*
X48113Y61591D01*
X48134Y61749D01*
Y60851D01*
G37*
G36*
Y105707D02*X47882Y106118D01*
X46977Y107177D01*
X45918Y108082D01*
X44730Y108810D01*
X43443Y109343D01*
X42089Y109668D01*
X40700Y109777D01*
X40686Y109776D01*
Y115000D01*
X48134D01*
Y105707D01*
G37*
G36*
Y54007D02*X47882Y54418D01*
X46977Y55477D01*
X45918Y56382D01*
X44730Y57110D01*
X43443Y57643D01*
X42089Y57968D01*
X40700Y58077D01*
X40686Y58076D01*
Y92024D01*
X40700Y92023D01*
X42089Y92132D01*
X43443Y92457D01*
X44730Y92990D01*
X45918Y93718D01*
X46977Y94623D01*
X47882Y95682D01*
X48134Y96093D01*
Y91034D01*
X47914Y90676D01*
X47679Y90109D01*
X47536Y89512D01*
X47488Y88900D01*
X47536Y88288D01*
X47679Y87691D01*
X47914Y87124D01*
X48134Y86766D01*
Y81234D01*
X47914Y80876D01*
X47679Y80309D01*
X47536Y79712D01*
X47488Y79100D01*
X47536Y78488D01*
X47679Y77891D01*
X47914Y77324D01*
X48134Y76966D01*
Y73234D01*
X47914Y72876D01*
X47679Y72309D01*
X47536Y71712D01*
X47488Y71100D01*
X47536Y70488D01*
X47679Y69891D01*
X47914Y69324D01*
X48134Y68966D01*
Y63428D01*
X48032Y63275D01*
X47871Y62970D01*
X47738Y62652D01*
X47633Y62323D01*
X47557Y61987D01*
X47511Y61645D01*
X47496Y61300D01*
X47511Y60955D01*
X47557Y60613D01*
X47633Y60277D01*
X47738Y59948D01*
X47871Y59630D01*
X48032Y59325D01*
X48134Y59169D01*
Y54007D01*
G37*
G36*
Y2000D02*X40686D01*
Y40324D01*
X40700Y40323D01*
X42089Y40432D01*
X43443Y40757D01*
X44730Y41290D01*
X45918Y42018D01*
X46977Y42923D01*
X47882Y43982D01*
X48134Y44393D01*
Y2000D01*
G37*
G36*
X40686D02*X21705D01*
X21862Y2038D01*
X24142Y2982D01*
X26247Y4272D01*
X28124Y5876D01*
X29728Y7753D01*
X31018Y9858D01*
X31962Y12138D01*
X32539Y14539D01*
X32684Y17000D01*
X32539Y19461D01*
X31962Y21862D01*
X31018Y24142D01*
X29728Y26247D01*
X28124Y28124D01*
X26247Y29728D01*
X24142Y31018D01*
X21862Y31962D01*
X19461Y32539D01*
X17000Y32732D01*
X14539Y32539D01*
X12138Y31962D01*
X9858Y31018D01*
X7753Y29728D01*
X5876Y28124D01*
X4272Y26247D01*
X2982Y24142D01*
X2038Y21862D01*
X2000Y21705D01*
Y115000D01*
X40686D01*
Y109776D01*
X39311Y109668D01*
X37957Y109343D01*
X36670Y108810D01*
X35482Y108082D01*
X34423Y107177D01*
X33518Y106118D01*
X32790Y104930D01*
X32257Y103643D01*
X31932Y102289D01*
X31823Y100900D01*
X31932Y99511D01*
X32257Y98157D01*
X32790Y96870D01*
X33518Y95682D01*
X34423Y94623D01*
X35482Y93718D01*
X36670Y92990D01*
X37957Y92457D01*
X39311Y92132D01*
X40686Y92024D01*
Y58076D01*
X39311Y57968D01*
X37957Y57643D01*
X36670Y57110D01*
X35482Y56382D01*
X34423Y55477D01*
X33518Y54418D01*
X32790Y53230D01*
X32257Y51943D01*
X31932Y50589D01*
X31823Y49200D01*
X31932Y47811D01*
X32257Y46457D01*
X32790Y45170D01*
X33518Y43982D01*
X34423Y42923D01*
X35482Y42018D01*
X36670Y41290D01*
X37957Y40757D01*
X39311Y40432D01*
X40686Y40324D01*
Y2000D01*
G37*
G54D31*X63000Y117500D02*X58000D01*
X67000D02*X80500D01*
X63000D02*X65500Y120000D01*
X82000D01*
X84500Y117500D01*
X105000D01*
X107500Y115000D01*
X162000Y5652D02*X109152D01*
X106500Y3000D01*
X93500D01*
X90000Y6500D01*
X162000Y9000D02*X107500D01*
X105000Y6500D01*
X100000Y42000D02*X104000D01*
X106000Y44000D01*
X107000Y47500D02*X110000Y50500D01*
Y67000D01*
X112500Y65000D02*Y51750D01*
X151500Y36000D02*Y41000D01*
X106000Y44000D02*X118500D01*
X120000Y48000D02*Y45500D01*
X112500Y51750D02*X117500Y46750D01*
X115000Y53000D02*X120000Y48000D01*
X122000Y48500D02*X117500Y53000D01*
X120000D02*X124500Y48500D01*
X118500Y44000D02*X120000Y45500D01*
X122000Y48500D02*Y38500D01*
X124500Y48500D02*Y37500D01*
X115000Y67000D02*Y53000D01*
X117500Y65000D02*Y53000D01*
X119000Y70000D02*Y67000D01*
X120000Y66000D01*
Y53000D01*
X124500Y37500D02*X123000Y36000D01*
X118000Y39250D02*Y37500D01*
X119500Y36000D01*
X123000D02*X119500D01*
G54D32*X17000Y17000D03*
G54D33*X40700Y49200D03*
G54D34*X51400Y71100D03*
Y61300D03*
G54D32*X183000Y133000D03*
Y17000D03*
X17000Y133000D03*
G54D33*X40700Y100900D03*
G54D34*X51400Y79100D03*
Y88900D03*
G54D35*X67000Y117500D03*
X58000D03*
X59000Y86000D03*
X71000D03*
X80500Y117500D03*
X84000Y112500D03*
Y109000D03*
Y105500D03*
X87500Y112500D03*
Y109000D03*
Y105500D03*
X140000Y131000D03*
X151000D03*
X126000Y144000D03*
X122500D03*
X119000D03*
X110500D03*
X115500D03*
X112500Y137000D03*
Y140500D03*
Y133500D03*
X107500Y115000D03*
X126000Y130000D03*
X122500D03*
X119000D03*
X115500D03*
X110500D03*
X184146Y106500D03*
X139854D03*
X130012D03*
X162000Y9000D03*
Y5652D03*
X105000Y6500D03*
X90000D03*
X77500Y11500D03*
X97500Y49000D03*
X106000Y51750D03*
X81500Y45500D03*
Y49500D03*
X107000Y47500D03*
X74000Y26500D03*
Y30500D03*
X100000Y42000D03*
X130012Y43500D03*
X122000Y38500D03*
X118000Y39250D03*
X52500Y53500D03*
X43500Y66500D03*
Y62000D03*
X39000Y66500D03*
Y62000D03*
X59000Y64000D03*
X71000D03*
X117500Y46750D03*
Y65000D03*
X115000Y67000D03*
X112500Y65000D03*
X110000Y67000D03*
X193988Y43500D03*
X184146D03*
X151500Y41000D03*
Y36000D03*
X119000Y70000D03*
G54D36*G54D37*G54D38*G54D39*G54D37*G54D38*G54D39*M02*
