G04 start of page 2 for group 0 idx 0 *
G04 Title: (unknown), top *
G04 Creator: pcb 20140316 *
G04 CreationDate: Sun 30 Dec 2018 07:44:10 PM GMT UTC *
G04 For: railfan *
G04 Format: Gerber/RS-274X *
G04 PCB-Dimensions (mil): 2000.00 1500.00 *
G04 PCB-Coordinate-Origin: lower left *
%MOIN*%
%FSLAX25Y25*%
%LNTOP*%
%ADD29C,0.0360*%
%ADD28C,0.0910*%
%ADD27C,0.1285*%
%ADD26C,0.0120*%
%ADD25C,0.0260*%
%ADD24R,0.0945X0.0945*%
%ADD23R,0.0378X0.0378*%
%ADD22R,0.0330X0.0330*%
%ADD21R,0.0130X0.0130*%
%ADD20R,0.0167X0.0167*%
%ADD19R,0.0512X0.0512*%
%ADD18C,0.0660*%
%ADD17C,0.1570*%
%ADD16C,0.2937*%
%ADD15C,0.0300*%
%ADD14C,0.0250*%
%ADD13C,0.0100*%
%ADD12C,0.0400*%
%ADD11C,0.0001*%
G54D11*G36*
X130000Y126000D02*X103000D01*
Y146000D01*
X130000D01*
Y145788D01*
X129264Y145787D01*
X129111Y145750D01*
X128965Y145690D01*
X128831Y145608D01*
X128712Y145505D01*
X128609Y145386D01*
X128527Y145251D01*
X128467Y145106D01*
X128430Y144953D01*
X128421Y144796D01*
X128430Y140859D01*
X128467Y140706D01*
X128527Y140561D01*
X128609Y140426D01*
X128712Y140307D01*
X128831Y140204D01*
X128965Y140122D01*
X129111Y140062D01*
X129264Y140025D01*
X129421Y140016D01*
X130000Y140017D01*
Y133976D01*
X129264Y133975D01*
X129111Y133938D01*
X128965Y133878D01*
X128831Y133796D01*
X128712Y133693D01*
X128609Y133574D01*
X128527Y133439D01*
X128467Y133294D01*
X128430Y133141D01*
X128421Y132984D01*
X128430Y129047D01*
X128467Y128894D01*
X128527Y128749D01*
X128609Y128614D01*
X128712Y128495D01*
X128831Y128392D01*
X128965Y128310D01*
X129111Y128250D01*
X129264Y128213D01*
X129421Y128204D01*
X130000Y128205D01*
Y126000D01*
G37*
G36*
X76500Y115000D02*X90000D01*
Y103000D01*
X76500D01*
Y115000D01*
G37*
G36*
X51394Y75188D02*X51400Y75188D01*
X52012Y75236D01*
X52609Y75379D01*
X53176Y75614D01*
X53699Y75935D01*
X54166Y76334D01*
X54565Y76801D01*
X54886Y77324D01*
X55000Y77600D01*
X56000D01*
Y72600D01*
X55000D01*
X54886Y72876D01*
X54565Y73399D01*
X54166Y73866D01*
X53699Y74265D01*
X53176Y74586D01*
X52609Y74821D01*
X52012Y74964D01*
X51400Y75012D01*
X51394Y75012D01*
Y75188D01*
G37*
G36*
Y84988D02*X51400Y84988D01*
X52012Y85036D01*
X52609Y85179D01*
X53176Y85414D01*
X53699Y85735D01*
X54166Y86134D01*
X54565Y86601D01*
X54886Y87124D01*
X55121Y87691D01*
X55264Y88288D01*
X55278Y88536D01*
X56000Y89257D01*
Y86118D01*
X55991Y86000D01*
X56000Y85882D01*
Y80600D01*
X55000D01*
X54886Y80876D01*
X54565Y81399D01*
X54166Y81866D01*
X53699Y82265D01*
X53176Y82586D01*
X52609Y82821D01*
X52012Y82964D01*
X51400Y83012D01*
X51394Y83012D01*
Y84988D01*
G37*
G36*
Y100500D02*X56000D01*
Y96000D01*
X55618D01*
X55500Y96009D01*
X55029Y95972D01*
X54570Y95862D01*
X54134Y95681D01*
X53731Y95435D01*
X53731Y95434D01*
X53372Y95128D01*
X53296Y95038D01*
X51394Y93137D01*
Y100500D01*
G37*
G36*
X56000Y49500D02*X51394D01*
Y57388D01*
X51400Y57388D01*
X52012Y57436D01*
X52609Y57579D01*
X53176Y57814D01*
X53699Y58135D01*
X54166Y58534D01*
X54565Y59001D01*
X54886Y59524D01*
X55121Y60091D01*
X55264Y60688D01*
X55300Y61300D01*
X55264Y61912D01*
X55121Y62509D01*
X54886Y63076D01*
X54565Y63599D01*
X54166Y64066D01*
X53699Y64465D01*
X53176Y64786D01*
X52609Y65021D01*
X52012Y65164D01*
X51400Y65212D01*
X51394Y65212D01*
Y67188D01*
X51400Y67188D01*
X52012Y67236D01*
X52609Y67379D01*
X53176Y67614D01*
X53699Y67935D01*
X54166Y68334D01*
X54565Y68801D01*
X54886Y69324D01*
X55000Y69600D01*
X56000D01*
Y64118D01*
X55991Y64000D01*
X56000Y63882D01*
Y49500D01*
G37*
G36*
X51394D02*X49532D01*
X49468Y50589D01*
X49143Y51943D01*
X48610Y53230D01*
X47882Y54418D01*
X46977Y55477D01*
X45918Y56382D01*
X44730Y57110D01*
X43443Y57643D01*
X42089Y57968D01*
X40700Y58077D01*
X39311Y57968D01*
X37957Y57643D01*
X36670Y57110D01*
X35482Y56382D01*
X34423Y55477D01*
X33518Y54418D01*
X32790Y53230D01*
X32257Y51943D01*
X31932Y50589D01*
X31846Y49500D01*
X2000D01*
Y100500D01*
X31854D01*
X31932Y99511D01*
X32257Y98157D01*
X32790Y96870D01*
X33518Y95682D01*
X34423Y94623D01*
X35482Y93718D01*
X36670Y92990D01*
X37957Y92457D01*
X39311Y92132D01*
X40700Y92023D01*
X42089Y92132D01*
X43443Y92457D01*
X44730Y92990D01*
X45918Y93718D01*
X46977Y94623D01*
X47882Y95682D01*
X48610Y96870D01*
X49143Y98157D01*
X49468Y99511D01*
X49526Y100500D01*
X51394D01*
Y93137D01*
X51041Y92784D01*
X50788Y92764D01*
X50191Y92621D01*
X49624Y92386D01*
X49101Y92065D01*
X48634Y91666D01*
X48235Y91199D01*
X47914Y90676D01*
X47679Y90109D01*
X47536Y89512D01*
X47488Y88900D01*
X47536Y88288D01*
X47679Y87691D01*
X47914Y87124D01*
X48235Y86601D01*
X48634Y86134D01*
X49101Y85735D01*
X49624Y85414D01*
X50191Y85179D01*
X50788Y85036D01*
X51394Y84988D01*
Y83012D01*
X50788Y82964D01*
X50191Y82821D01*
X49624Y82586D01*
X49101Y82265D01*
X48634Y81866D01*
X48235Y81399D01*
X47914Y80876D01*
X47679Y80309D01*
X47536Y79712D01*
X47488Y79100D01*
X47536Y78488D01*
X47679Y77891D01*
X47914Y77324D01*
X48235Y76801D01*
X48634Y76334D01*
X49101Y75935D01*
X49624Y75614D01*
X50191Y75379D01*
X50788Y75236D01*
X51394Y75188D01*
Y75012D01*
X50788Y74964D01*
X50191Y74821D01*
X49624Y74586D01*
X49101Y74265D01*
X48634Y73866D01*
X48235Y73399D01*
X47914Y72876D01*
X47679Y72309D01*
X47536Y71712D01*
X47488Y71100D01*
X47536Y70488D01*
X47679Y69891D01*
X47914Y69324D01*
X48235Y68801D01*
X48634Y68334D01*
X49101Y67935D01*
X49624Y67614D01*
X50191Y67379D01*
X50788Y67236D01*
X51394Y67188D01*
Y65212D01*
X50788Y65164D01*
X50191Y65021D01*
X49624Y64786D01*
X49101Y64465D01*
X48634Y64066D01*
X48235Y63599D01*
X47914Y63076D01*
X47679Y62509D01*
X47536Y61912D01*
X47488Y61300D01*
X47536Y60688D01*
X47679Y60091D01*
X47914Y59524D01*
X48235Y59001D01*
X48634Y58534D01*
X49101Y58135D01*
X49624Y57814D01*
X50191Y57579D01*
X50788Y57436D01*
X51394Y57388D01*
Y49500D01*
G37*
G36*
X83500Y43500D02*X72500D01*
Y51500D01*
X83500D01*
Y43500D01*
G37*
G54D12*X71914Y106500D02*X71957Y106543D01*
G54D13*X26500Y96000D02*Y83500D01*
G54D12*X51400Y88900D02*X55500Y93000D01*
X88500D01*
X59000Y86000D02*X71000D01*
G54D13*X35000Y119000D02*X25000Y109000D01*
Y97500D01*
G54D12*X88500Y93000D02*X96457Y85043D01*
G54D13*X80500Y117500D02*X109000D01*
G54D12*X59000Y64000D02*X71000D01*
G54D13*X51400Y71100D02*X69100D01*
X81348Y73425D02*Y63152D01*
X82750Y61750D01*
X51400Y79100D02*X68900D01*
G54D14*X67957Y51457D02*X70500Y54000D01*
X78500D01*
G54D13*X69100Y71100D02*X71425Y73425D01*
X74652D01*
X68900Y79100D02*X71425Y76575D01*
X74652D01*
X81348D02*X78575D01*
X78000Y76000D01*
Y61000D01*
X79750Y59250D01*
X88886D01*
G54D12*X96457Y85043D02*Y73500D01*
G54D13*X117500Y65000D02*Y68000D01*
X116750Y59250D02*X118500Y57500D01*
Y50000D01*
X117500Y68000D02*X116500Y69000D01*
X114500Y67500D02*X115000Y67000D01*
X107500Y63000D02*Y115000D01*
X112500Y65000D02*Y111500D01*
X114500Y67500D02*Y109500D01*
X116500Y69000D02*Y107500D01*
X112114Y59250D02*X116750D01*
X119000Y70000D02*Y105500D01*
X116500Y115500D02*X112500Y111500D01*
X118500Y113500D02*X114500Y109500D01*
X110000Y67000D02*Y116500D01*
X109000Y117500D01*
X98000Y135500D02*Y144500D01*
Y143500D02*Y146500D01*
X99000Y147500D01*
X91304Y141799D02*X75701D01*
X91304Y138650D02*X79150D01*
X91304Y135500D02*X83500D01*
X75701Y141799D02*X73000Y144500D01*
X79150Y138650D02*X76000Y135500D01*
X67543D01*
X83500D02*X74500Y126500D01*
X67543D01*
G54D12*X107000Y128000D02*X84000D01*
X133358Y142906D02*X142137D01*
X146500Y138543D01*
X140500Y131000D02*X133452D01*
X155914D02*X137000D01*
G54D13*X131406Y147000D02*X135500Y142906D01*
X99000Y147500D02*X130906D01*
X132500Y145906D01*
G54D12*X146000Y138543D02*X155871D01*
X155914Y138586D01*
G54D15*X160914Y138086D02*X155914D01*
G54D13*X73000Y144500D02*X67543D01*
X38500D02*X60457D01*
X40500D02*X38000D01*
X35000Y141500D01*
X54000Y134000D02*X55500Y135500D01*
X54000Y134000D02*Y119000D01*
X55500Y117500D01*
X58000D01*
X55500Y135500D02*X60457D01*
X35000Y141500D02*Y119000D01*
G54D12*X84000Y128000D02*X76000Y120000D01*
X71957Y115957D02*X77500Y121500D01*
G54D13*X60457Y126500D02*Y120043D01*
G54D12*X72000Y107000D02*X71957Y107043D01*
G54D13*X60457Y120043D02*X63000Y117500D01*
X67000D01*
G54D12*X72000Y116000D02*Y93000D01*
G54D15*X179224Y100799D02*Y107776D01*
G54D13*X169382Y100799D02*Y111118D01*
X174303Y108697D02*Y100799D01*
G54D15*X179224Y107776D02*X162500Y124500D01*
Y136500D01*
X160914Y138086D01*
G54D13*X169382Y111118D02*X167000Y113500D01*
X167500Y115500D02*X174303Y108697D01*
G54D15*X184146Y100799D02*Y106500D01*
X139854Y100799D02*Y106500D01*
G54D13*X144776Y108224D02*Y100799D01*
X154618D02*Y109882D01*
X153000Y111500D01*
G54D15*X130012Y100799D02*Y106500D01*
G54D13*X119000Y105500D02*X123000Y109500D01*
X120500Y111500D02*X116500Y107500D01*
X123000Y109500D02*X143500D01*
X144776Y108224D01*
X120500Y111500D02*X153000D01*
X118500Y113500D02*X167000D01*
X116500Y115500D02*X167500D01*
X149925Y5652D02*Y8075D01*
X153075Y5652D02*Y8075D01*
X154000Y9000D01*
X162000D01*
X156224Y5652D02*X162000D01*
X149925Y8075D02*X149000Y9000D01*
X141000D01*
X138457Y6457D01*
X146776Y5652D02*X142652D01*
X139500Y2500D01*
X146776Y12348D02*Y23776D01*
X149925Y12348D02*Y22425D01*
X153075Y12348D02*Y20575D01*
X156224Y12348D02*Y18724D01*
X112114Y44250D02*X107250D01*
X112114Y51750D02*X106750D01*
X112114Y46750D02*X117500D01*
G54D14*X107500Y44250D02*X106250D01*
X103500Y41500D01*
Y32000D01*
X102500Y31000D01*
G54D13*X102000Y44500D02*X105000Y47500D01*
X107000D01*
X110500Y27000D02*X122000Y38500D01*
X112114Y39250D02*X118000D01*
X112114Y41750D02*X123750D01*
X127000Y38500D01*
X128000Y40500D02*X118500Y50000D01*
X138457Y6457D02*X129500D01*
X139500Y2500D02*X118457D01*
X114500Y6457D01*
X105000Y6500D02*X99500D01*
X129500Y13543D02*X79543D01*
X84500Y24000D02*X139500D01*
X146776Y23776D02*X164461Y41461D01*
X149925Y22425D02*X169382Y41882D01*
X153075Y20575D02*X174303Y41803D01*
X156224Y18724D02*X179224Y41724D01*
X157000Y38500D02*X159539Y41039D01*
X151500Y36000D02*X139500Y24000D01*
X164461Y41461D02*Y49201D01*
X169382Y41882D02*Y49201D01*
X174303Y41803D02*Y49201D01*
X179224Y41724D02*Y49201D01*
G54D15*X193988D02*Y43500D01*
X184146Y49201D02*Y43500D01*
X130012Y49201D02*Y43500D01*
G54D13*X128000Y40500D02*X142000D01*
X144776Y43276D01*
Y49201D01*
X127000Y38500D02*X157000D01*
X159539Y41039D02*Y49201D01*
X154618D02*Y44118D01*
X151500Y41000D01*
X49000Y18000D02*Y25500D01*
X47000Y27000D02*Y9000D01*
X50500Y16500D02*X49000Y18000D01*
Y25500D02*X50500Y27000D01*
X50075Y30075D02*X47000Y27000D01*
G54D14*X74000Y30500D02*Y26500D01*
G54D13*X66348Y30075D02*X73575D01*
X66348Y26925D02*X73075D01*
X62586Y16500D02*X72500D01*
X83000Y27000D01*
X68000Y7500D02*X84500Y24000D01*
X50500Y27000D02*X59577D01*
X59652Y30075D02*X50075D01*
X90000Y6500D02*X84500D01*
X79543Y13543D02*X77500Y11500D01*
X55500Y16500D02*X50500D01*
X47000Y9000D02*X48500Y7500D01*
X55457D01*
X62543D02*X68000D01*
X88886Y56750D02*X81621D01*
G54D14*X78500Y54000D02*X81250Y56750D01*
X84250D01*
G54D13*X88750D02*Y54386D01*
X88886Y54250D01*
X82750Y61750D02*X88886D01*
Y49250D02*X81750D01*
G54D12*X103543Y73500D02*Y52543D01*
X100500Y49500D01*
X106000Y51750D02*X102750D01*
X102000Y51000D01*
X96500Y73543D02*Y54500D01*
G54D13*X93750Y51750D02*X96500Y54500D01*
X107500Y63000D02*X108750Y61750D01*
X112114D01*
G54D12*X100000Y49000D02*X97500D01*
G54D13*X89250Y49250D02*X97750D01*
X98000Y49000D01*
X88886Y51750D02*X93750D01*
X88886Y46750D02*X94250D01*
X96500Y44500D01*
G54D14*X81000Y31000D02*X76500Y35500D01*
X70500D01*
X67957Y38043D01*
Y51457D02*Y38043D01*
G54D13*X96500Y44500D02*X102000D01*
G54D14*X102500Y31000D02*X81000D01*
G54D13*X88886Y39250D02*X97250D01*
X100000Y42000D01*
X83000Y27000D02*X110500D01*
G54D16*X17000Y17000D03*
G54D17*X40700Y49200D03*
G54D18*X51400Y71100D03*
Y61300D03*
G54D16*X183000Y133000D03*
Y17000D03*
X17000Y133000D03*
G54D17*X40700Y100900D03*
G54D18*X51400Y79100D03*
Y88900D03*
G54D19*X64521Y79000D02*X65307D01*
X64521Y86086D02*X65307D01*
X64607Y71043D02*X65393D01*
X64607Y63957D02*X65393D01*
G54D20*X73717Y76575D02*X75587D01*
X73717Y73425D02*X75587D01*
X80413D02*X82283D01*
X80413Y76575D02*X82283D01*
G54D19*X67957Y47893D02*Y47107D01*
X75043Y47893D02*Y47107D01*
G54D20*X65413Y26925D02*X67283D01*
X65413Y30075D02*X67283D01*
X58717D02*X60587D01*
X58717Y26925D02*X60587D01*
X146776Y6587D02*Y4717D01*
X149925Y6587D02*Y4717D01*
X153075Y6587D02*Y4717D01*
X156224Y6587D02*Y4717D01*
Y13283D02*Y11413D01*
X153075Y13283D02*Y11413D01*
X149925Y13283D02*Y11413D01*
X146776Y13283D02*Y11413D01*
G54D19*X129107Y13543D02*X129893D01*
X114107D02*X114893D01*
X99107D02*X99893D01*
X84107D02*X84893D01*
X129107Y6457D02*X129893D01*
X114107D02*X114893D01*
X99107D02*X99893D01*
X84107D02*X84893D01*
X55457Y7893D02*Y7107D01*
X62543Y7893D02*Y7107D01*
X55500Y16893D02*Y16107D01*
X62586Y16893D02*Y16107D01*
X96457Y73893D02*Y73107D01*
X103543Y73893D02*Y73107D01*
G54D21*X109811Y39250D02*X114417D01*
X109811Y41750D02*X114417D01*
X109811Y44250D02*X114417D01*
X109811Y46750D02*X114417D01*
X109811Y49250D02*X114417D01*
X109811Y51750D02*X114417D01*
X109811Y54250D02*X114417D01*
X109811Y56750D02*X114417D01*
X109811Y59250D02*X114417D01*
X109811Y61750D02*X114417D01*
X86583D02*X91189D01*
X86583Y59250D02*X91189D01*
X86583Y56750D02*X91189D01*
X86583Y54250D02*X91189D01*
X86583Y51750D02*X91189D01*
X86583Y49250D02*X91189D01*
X86583Y46750D02*X91189D01*
X86583Y44250D02*X91189D01*
X86583Y41750D02*X91189D01*
X86583Y39250D02*X91189D01*
G54D22*X122752Y92224D02*X125150D01*
X122752Y87303D02*X125150D01*
X122752Y82382D02*X125150D01*
X122752Y77461D02*X125150D01*
X122752Y72539D02*X125150D01*
X122752Y67618D02*X125150D01*
X122752Y62697D02*X125150D01*
X122752Y57776D02*X125150D01*
X130012Y50402D02*Y48000D01*
X134933Y50402D02*Y48000D01*
X139854Y50402D02*Y48000D01*
X144776Y50402D02*Y48000D01*
X149697Y50402D02*Y48000D01*
X154618Y50402D02*Y48000D01*
X159539Y50402D02*Y48000D01*
X164461Y50402D02*Y48000D01*
X169382Y50402D02*Y48000D01*
X174303Y50402D02*Y48000D01*
X179224Y50402D02*Y48000D01*
X184146Y50402D02*Y48000D01*
X189067Y50402D02*Y48000D01*
X193988Y50402D02*Y48000D01*
G54D19*X155521Y138086D02*X156307D01*
X155521Y131000D02*X156307D01*
X145607Y138043D02*X146393D01*
X145607Y130957D02*X146393D01*
G54D23*X131311Y131094D02*X135405D01*
X123595Y137000D02*X135405D01*
G54D24*X119971D02*X121861D01*
G54D11*G36*
X125166Y133695D02*X128006Y136535D01*
X129426Y135115D01*
X126586Y132275D01*
X125166Y133695D01*
G37*
G36*
X126586Y141725D02*X129426Y138885D01*
X128006Y137465D01*
X125166Y140305D01*
X126586Y141725D01*
G37*
G54D23*X131311Y142906D02*X135405D01*
G54D19*X71957Y106893D02*Y106107D01*
X79043Y106893D02*Y106107D01*
G54D20*X90369Y141799D02*X92239D01*
X90369Y138650D02*X92239D01*
X90369Y135500D02*X92239D01*
X90369Y132351D02*X92239D01*
X97065D02*X98935D01*
X97065Y135500D02*X98935D01*
X97065Y138650D02*X98935D01*
X97065Y141799D02*X98935D01*
G54D19*X60457Y135893D02*Y135107D01*
Y126893D02*Y126107D01*
Y144893D02*Y144107D01*
X67543Y135893D02*Y135107D01*
Y126893D02*Y126107D01*
Y144893D02*Y144107D01*
G54D22*X184146Y102000D02*Y99598D01*
X179224Y102000D02*Y99598D01*
X174303Y102000D02*Y99598D01*
X169382Y102000D02*Y99598D01*
X164461Y102000D02*Y99598D01*
X159539Y102000D02*Y99598D01*
X154618Y102000D02*Y99598D01*
X149697Y102000D02*Y99598D01*
X144776Y102000D02*Y99598D01*
X139854Y102000D02*Y99598D01*
X134933Y102000D02*Y99598D01*
X130012Y102000D02*Y99598D01*
G54D25*X67000Y117500D03*
X58000D03*
X59000Y86000D03*
X71000D03*
X80500Y117500D03*
X84000Y112500D03*
Y109000D03*
Y105500D03*
X87500Y112500D03*
Y109000D03*
Y105500D03*
X140000Y131000D03*
X151000D03*
X126000Y144000D03*
X122500D03*
X119000D03*
X110500D03*
X115500D03*
X112500Y137000D03*
Y140500D03*
Y133500D03*
X107500Y115000D03*
X126000Y130000D03*
X122500D03*
X119000D03*
X115500D03*
X110500D03*
X184146Y106500D03*
X139854D03*
X130012D03*
X162000Y9000D03*
Y5652D03*
X105000Y6500D03*
X90000D03*
X77500Y11500D03*
X97500Y49000D03*
X106000Y51750D03*
X81500Y45500D03*
Y49500D03*
X107000Y47500D03*
X74000Y26500D03*
Y30500D03*
X100000Y42000D03*
X130012Y43500D03*
X122000Y38500D03*
X118000Y39250D03*
X52500Y53500D03*
X43500Y66500D03*
Y62000D03*
X39000Y66500D03*
Y62000D03*
X59000Y64000D03*
X71000D03*
X117500Y46750D03*
Y65000D03*
X115000Y67000D03*
X112500Y65000D03*
X110000Y67000D03*
X193988Y43500D03*
X184146D03*
X151500Y41000D03*
Y36000D03*
X119000Y70000D03*
G54D26*G54D27*G54D28*G54D29*G54D27*G54D28*G54D29*M02*
